<?xml version="1.0" standalone="no"?>
<!DOCTYPE svg PUBLIC "-//W3C//DTD SVG 1.1//EN" "http://www.w3.org/Graphics/SVG/1.1/DTD/svg11.dtd" >
<svg xmlns="http://www.w3.org/2000/svg" xmlns:xlink="http://www.w3.org/1999/xlink" version="1.1">
<metadata>
Created by FontForge 20170731 at Sat Sep 29 00:26:34 2018
 By Aleksey,,,
2007 Vic Fieger
</metadata>
<defs>
<font id="SVN-GangofThree" horiz-adv-x="1306" >
  <font-face 
    font-family="SVN-Gang of Three"
    font-weight="400"
    font-stretch="normal"
    units-per-em="2048"
    panose-1="2 0 0 0 0 0 0 0 0 0"
    ascent="1638"
    descent="-410"
    x-height="1357"
    cap-height="1360"
    bbox="-58 -400 1443 2093.52"
    underline-thickness="150"
    underline-position="-442"
    unicode-range="U+0020-F002"
  />
<missing-glyph horiz-adv-x="1536" 
d="M1280 0h-1024v1280h1024v-1280zM288 1248v-1216h960v1216h-960z" />
    <glyph glyph-name=".notdef" horiz-adv-x="1536" 
d="M1280 0h-1024v1280h1024v-1280zM288 1248v-1216h960v1216h-960z" />
    <glyph glyph-name=".null" horiz-adv-x="0" 
 />
    <glyph glyph-name="nonmarkingreturn" horiz-adv-x="569" 
 />
    <glyph glyph-name="space" unicode=" " horiz-adv-x="569" 
 />
    <glyph glyph-name="space" unicode="&#xa0;" horiz-adv-x="569" 
 />
    <glyph glyph-name="exclam" unicode="!" horiz-adv-x="497" 
d="M98 366l-2 994h334l-90 -997zM98 5l1 260h241v-261z" />
    <glyph glyph-name="quotedbl" unicode="&#x22;" horiz-adv-x="598" 
d="M69 992v407h211v-407h-211zM341 992v407h195v-407h-195z" />
    <glyph glyph-name="numbersign" unicode="#" horiz-adv-x="1139" 
 />
    <glyph glyph-name="dollar" unicode="$" horiz-adv-x="1028" 
d="M578 576v-309q36 11 68 36q67 49 67 119q0 69 -66 119q-33 23 -69 35zM468 792v325q-55 -12 -98 -43q-67 -49 -67 -120q0 -69 67 -118q45 -33 98 -44zM468 253v341q-166 13 -287 104q-144 106 -144 258q0 151 145 257q122 91 286 104v210h110v-208q175 -10 304 -106
q62 -47 99 -102l-243 -80q-16 23 -42 43q-52 37 -118 46v-341q150 -20 259 -101q144 -106 144 -258q0 -150 -145 -256q-109 -81 -258 -101v-264h-110v258q-195 5 -332 107q-66 47 -99 101l242 80q18 -25 42 -43q61 -44 147 -49z" />
    <glyph glyph-name="percent" unicode="%" horiz-adv-x="1821" 
 />
    <glyph glyph-name="ampersand" unicode="&#x26;" horiz-adv-x="1167" 
d="M696 1075h-177q-82 0 -119 -26.5t-30 -79.5q14 -107 183 -120l549 4l-8 -268h-80q-1 -166 22 -249t69 -82v-253q-309 -36 -362 347v115l164 112l-165 2l-390 2q-11 -252 42 -287t265 -9l100 -251q-238 -56 -456 -4q-95 23 -160 86q-66 66 -76 182v394q12 79 48 116.5
t97 33.5q-122 26 -109 267t422 252h135z" />
    <glyph glyph-name="quotesingle" unicode="'" horiz-adv-x="353" 
d="M69 992v407h211v-407h-211z" />
    <glyph glyph-name="parenleft" unicode="(" horiz-adv-x="626" 
d="M318 1605l230 39q-238 -531 -238 -1082q0 -426 144 -863l-137 -1q-187 488 -187 965q0 476 188 942z" />
    <glyph glyph-name="parenright" unicode=")" horiz-adv-x="626" 
d="M360 -263l-230 -39q238 531 238 1082q0 426 -144 863l137 1q187 -488 187 -965q0 -476 -188 -942z" />
    <glyph glyph-name="asterisk" unicode="*" horiz-adv-x="797" 
 />
    <glyph glyph-name="plus" unicode="+" horiz-adv-x="1196" 
 />
    <glyph glyph-name="comma" unicode="," horiz-adv-x="647" 
d="M53 27l174 435l241 -92l-157 -426z" />
    <glyph glyph-name="hyphen" unicode="-" horiz-adv-x="715" 
d="M65 693l45 257l422 1l-45 -258h-422z" />
    <glyph glyph-name="hyphen" unicode="&#xad;" horiz-adv-x="715" 
d="M65 693l45 257l422 1l-45 -258h-422z" />
    <glyph glyph-name="period" unicode="." horiz-adv-x="583" 
d="M141 101l1 315h256v-316z" />
    <glyph glyph-name="slash" unicode="/" horiz-adv-x="676" 
d="M418 1594l174 -79l-421 -1860l-92 21z" />
    <glyph glyph-name="zero" unicode="0" horiz-adv-x="1102" 
d="M206 1360h683q118 -16 125 -158l-1 -1046q2 -80 -29.5 -119t-97.5 -38l-685 1q-133 -10 -123 150l1 1051q-6 147 127 159zM681 1090h-275q-58 1 -84 -14t-21 -44l-1 -707q15 -68 111 -58h291q89 -14 92 62l1 697q4 32 -24.5 48.5t-89.5 15.5zM554 885q65 11 93 -42.5
t18 -171.5q10 -121 -18 -174.5t-93 -39.5q-64 -8 -91.5 45.5t-19.5 168.5q-7 119 21 173t90 41z" />
    <glyph glyph-name="one" unicode="1" horiz-adv-x="1102" 
d="M322 1083l42 279h231q91 -13 91 -208v-884h109l-1 -269l-510 -2v272l122 -1v813h-84z" />
    <glyph glyph-name="two" unicode="2" horiz-adv-x="1102" 
d="M251 1362l653 -1q50 1 75 -38.5t26 -118.5v-250q-1 -100 -79 -156l-520 -517l395 1v110h204v-392l-922 2v296l641 657l-3 142l-364 -3q-43 -2 -44 -127l-224 -2l3 267q-1 65 39 98t120 32z" />
    <glyph glyph-name="three" unicode="3" horiz-adv-x="1099" 
d="M206 1359h693q112 0 113 -142l1 -420q-5 -73 -96 -98q47 -3 71 -25.5t23 -64.5l-2 -456q2 -152 -113 -153h-715q-58 -5 -83.5 29t-19.5 108l2 242l243 1l3 -97h437l2 293l-378 -1l1 248l375 1l2 267h-440l-1 -79l-244 -1v218q-1 130 126 130z" />
    <glyph glyph-name="four" unicode="4" horiz-adv-x="1102" 
d="M61 490l695 870h238v-870h76v-279l-81 1l-1 -212h-216v206h-711v284zM769 490l1 494l-384 -494h383z" />
    <glyph glyph-name="five" unicode="5" horiz-adv-x="1102" 
d="M78 562v797l935 -2v-269h-696l1 -223l622 1q79 -13 80 -133v-586q-9 -143 -119 -149l-712 3q-108 12 -114 125v216h234q-21 -94 152 -83h240q56 -7 79.5 28.5t16.5 114.5q7 81 -9 121t-55 39h-655z" />
    <glyph glyph-name="six" unicode="6" horiz-adv-x="1102" 
d="M170 1362l756 -1l-2 -285h-567q-56 -2 -47 -125v-126h600q92 -9 104 -161v-464q-10 -199 -92 -200h-760q-86 2 -86 155v1048q2 158 94 159zM811 560h-501v-297l502 1z" />
    <glyph glyph-name="seven" unicode="7" horiz-adv-x="1102" 
d="M80 949l1 411h932v-268l-435 -1093l-276 2l458 1090l-458 2v-144h-222z" />
    <glyph glyph-name="eight" unicode="8" horiz-adv-x="1102" 
d="M180 1363h753q85 -1 83 -159l-1 -395q3 -98 -79 -123q85 -19 82 -128v-384q2 -172 -90 -174h-753q-88 0 -86 158l1 396q1 96 76 123q-78 32 -76 134v391q-1 160 90 161zM754 1091h-390v-253h389zM754 554h-380v-269h380v269z" />
    <glyph glyph-name="nine" unicode="9" horiz-adv-x="1102" 
d="M923 0h-758l4 286h566q57 0 47 124v126h-600q-93 9 -103 162v463q9 198 90 200l761 1q87 -3 87 -156v-1048q-2 -156 -94 -158zM281 802h501v296l-502 -2z" />
    <glyph glyph-name="colon" unicode=":" horiz-adv-x="583" 
d="M141 589l1 315h256v-316zM141 101l1 315h256v-316z" />
    <glyph glyph-name="semicolon" unicode=";" horiz-adv-x="647" 
d="M197 588l1 315h256v-316zM63 29l174 435l241 -92l-157 -426z" />
    <glyph glyph-name="semicolon" unicode="&#x37e;" horiz-adv-x="647" 
d="M197 588l1 315h256v-316zM63 29l174 435l241 -92l-157 -426z" />
    <glyph glyph-name="less" unicode="&#x3c;" horiz-adv-x="1196" 
 />
    <glyph glyph-name="equal" unicode="=" horiz-adv-x="1196" 
 />
    <glyph glyph-name="greater" unicode="&#x3e;" horiz-adv-x="1196" 
 />
    <glyph glyph-name="question" unicode="?" horiz-adv-x="1019" 
d="M234 1359h626q97 -28 99 -121l2 -312q-24 -76 -76 -132l-174 -167q-66 -65 -66 -184l-1 -120l-291 2l1 232q0 69 64 133l256 254l1 74q14 38 -20 54t-116 12l-129 1q-47 10 -69.5 -9.5t-20.5 -66.5l-263 3v233q35 109 177 114zM356 3l3 254h282v-250z" />
    <glyph glyph-name="at" unicode="@" horiz-adv-x="2079" 
 />
    <glyph glyph-name="A" unicode="A" 
d="M515 1271l79 189l246 -93l-29 -96h396l-41 -296l-216 -1l343 -919l-265 -91l-352 940l-393 -932l-269 82l388 924l-283 1l22 292h374zM437 154l284 286l153 -168l-283 -284z" />
    <glyph glyph-name="B" unicode="B" horiz-adv-x="1150" 
d="M65 1075l36 284h624q200 -10 244 -95q43 -82 35 -180q-7 -95 -143 -244q210 8 234 -150v-436q-11 -117 -77 -182q-63 -63 -159 -86q-219 -52 -456 46l100 251q211 -67 264 -33q54 35 43 346l-378 -2v-246q-53 -383 -362 -347v253q46 -1 66 38.5t12 119.5v173h-80l1 255
l102 -2v237h-106zM685 1075h-253v-224l129 28q136 73 124 196z" />
    <glyph glyph-name="C" unicode="C" horiz-adv-x="1247" 
d="M167 1357h755q265 -63 282 -395h-265q-5 105 -135 95h-356q-110 -240 -116 -360q-5 -122 63 -230q69 -106 149 -153q80 -45 222 -31q141 13 261 182l179 -223q-155 -151 -253 -202q-100 -51 -257 -52q-161 -2 -291 62q-133 65 -242 237q-110 175 -98 396q12 223 58 285
l199 89h-238l16 95l23 91z" />
    <glyph glyph-name="D" unicode="D" horiz-adv-x="1217" 
d="M45 1062l48 297h882l192 -1v-608q13 -160 -31 -299.5t-159 -268.5q-117 -132 -261 -164q-140 -31 -655 -19l2 284l190 2l-112 56v721h-96zM862 1062h-432v-785q153 -21 262 46t147 169q37 99 23 570z" />
    <glyph glyph-name="E" unicode="E" horiz-adv-x="1107" 
d="M58 1065l48 297h963l-80 -302l-486 -2v-149h533l-48 -272l-492 1q-15 -215 26 -286q42 -69 139 -70h366l-49 -283q-441 -11 -512 27q-69 37 -147 124q-77 87 -96 255v233l-165 -1l41 274l135 -1v156z" />
    <glyph glyph-name="F" unicode="F" horiz-adv-x="1036" 
d="M50 1073l49 287h891l-64 -287h-462l-1 -332l36 136l369 -75l-56 -297l-352 70l1 -538l-300 -63v1032l145 67h-256z" />
    <glyph glyph-name="G" unicode="G" horiz-adv-x="1294" 
d="M43 1051l102 301h1053l-50 -300h-719v-635q-5 -68 32.5 -97.5t118.5 -19.5h358l-1 235l-240 -1v284l535 -1v-817l-1 -78l-290 -56v238l-111 -104l-429 -1q-143 21 -207 109.5t-65 258.5v597l176 88z" />
    <glyph glyph-name="H" unicode="H" horiz-adv-x="1193" 
d="M58 -31l-2 1387h302v-464l440 3v457l302 2v-471h52l24 -275h-76v-440q-30 -90 -75 -120q-45 -28 -141 -45q-94 -15 -191 -15l-2 264q92 6 114 76v279l-367 1l-80 127v-715z" />
    <glyph glyph-name="I" unicode="I" horiz-adv-x="698" 
d="M56 1072l29 288h545l-40 -288h-88v-795h112l-16 -279h-545l27 281l117 -1l2 723l126 71h-269z" />
    <glyph glyph-name="J" unicode="J" horiz-adv-x="698" 
d="M101 1072l68 285h470v-1045q-4 -131 -34 -236q-29 -100 -165 -203q-137 -106 -359 -128l-24 300q141 12 220 114q79 103 66 843l136 70h-378z" />
    <glyph glyph-name="K" unicode="K" horiz-adv-x="1171" 
d="M337 869l522 522l207 -207l-444 -447q224 -407 287 -419t152 62l109 -269q-109 -117 -208 -127q-99 -11 -197 25q-99 36 -367 538l-61 -66v-482h-285v1361h284z" />
    <glyph glyph-name="L" unicode="L" horiz-adv-x="1035" 
d="M150 648l2 715h297l-1 -715l170 -2l-29 -240l-133 -1v-89l534 1l-31 -314l-921 2l45 309h63v89h-98l26 244z" />
    <glyph glyph-name="M" unicode="M" horiz-adv-x="1403" 
d="M534 1355v101l316 -3v-98h339q123 -19 137 -138l-2 -907q-51 -216 -143 -275q-91 -58 -227 -58v303q82 -8 69 387v385h-170v-1008l-322 -57l1 1065h-132v-1025l-322 -41l-1 1009l109 65h-139l83 295h404z" />
    <glyph glyph-name="N" unicode="N" horiz-adv-x="1205" 
d="M50 -5l2 1362h290l-1 -216l34 84q192 -51 282 -115q93 -64 190 -207l14 -40l-1 492h288v-1122q7 -76 -67 -164q-74 -86 -301 -74v283q100 8 84 129q2 67 -30 147q-30 81 -190 212q-157 132 -303 173v-944h-291z" />
    <glyph glyph-name="O" unicode="O" horiz-adv-x="1247" 
d="M48 1302l294 61v-131l78 131h660q122 -35 115 -344v-901q-24 -111 -187 -115h-763q-170 -8 -197 148v1151zM900 1068h-558v-770h558v770z" />
    <glyph glyph-name="P" unicode="P" horiz-adv-x="1145" 
d="M105 1356h828q153 -29 157 -202l-2 -508q-14 -156 -165 -153h-411l-96 172v-454q-24 -152 -103 -189q-78 -36 -252 -34l-1 263q36 -8 52.5 42t12.5 159v531l156 87l-235 1zM788 1070h-380l1 -258l379 -1v259z" />
    <glyph glyph-name="Q" unicode="Q" horiz-adv-x="1259" 
d="M49 1062l69 300h951q144 -65 132 -259l-1 -916q-10 -175 -165 -186h-311l413 -89l-59 -269l-555 101l53 257l-389 -1q-104 15 -136 230v765l121 68zM905 1067h-558v-896l68 125h490v771z" />
    <glyph glyph-name="R" unicode="R" horiz-adv-x="1167" 
d="M46 1062l63 298h862q90 -10 125 -117l-2 -402q-28 -139 -84 -187q-59 -49 -196 -109l79 -126q89 -138 249 -159l-23 -308l-161 30q-156 31 -332 328l-63 120l-157 -74l-1 -357l-280 -2v266l-110 235l108 68l2 421l137 76zM814 1062h-408v-385l299 118q109 40 109 129v138
z" />
    <glyph glyph-name="S" unicode="S" horiz-adv-x="1112" 
d="M39 1072l56 290l742 1q121 -30 156 -135q36 -105 36 -184l-262 -52q0 94 -177 80h-206l629 -616q71 -90 18 -303q-52 -136 -257 -154l-505 1q-84 28 -136.5 107.5t-81.5 208.5l274 93q5 -57 28 -84.5t64 -25.5l267 -1q62 14 -20 88l-585 572l144 114h-184z" />
    <glyph glyph-name="T" unicode="T" horiz-adv-x="1015" 
d="M40 1063l30 297h908l-37 -300h-323v-649q-16 -151 102 -179l-73 -282q-137 -5 -232 89q-94 92 -97 246v715l129 62z" />
    <glyph glyph-name="U" unicode="U" horiz-adv-x="1243" 
d="M66 1323l307 53q-57 -525 -16 -705q43 -181 133 -283q92 -104 412 -50l-1 1024l290 -17v-1310l-290 -29v165l-52 -181l-63 -14q-282 -5 -425 79t-236 341q-93 255 -76 742z" />
    <glyph glyph-name="V" unicode="V" horiz-adv-x="1303" 
d="M3 1297l295 80l364 -1023q183 149 237 325q54 178 41 386l-146 -1l33 297l405 2q57 -231 19 -484q-37 -250 -122 -419q-85 -168 -252 -368l-144 55l68 -191l-305 -115z" />
    <glyph glyph-name="W" unicode="W" horiz-adv-x="1451" 
d="M-4 1298l291 69l168 -824q122 104 141 212t-34 310h-116l45 294l345 -1l170 -791q75 47 109 172q35 129 -17 334h-108l49 286l315 -1q91 -502 51 -667q-39 -164 -96 -265q-54 -98 -169 -199l-80 55l67 -313l-285 -104l-123 563q-40 -130 -129 -199l-66 32l56 -292
l-268 -119z" />
    <glyph glyph-name="X" unicode="X" horiz-adv-x="1260" 
d="M26 1210l240 188l434 -586q176 254 279 559l279 -112q-134 -348 -387 -672l363 -487l-252 -201l-317 433q-95 -113 -194 -197q-97 -83 -266 -177l-206 218q339 222 506 395z" />
    <glyph glyph-name="Y" unicode="Y" horiz-adv-x="1083" 
d="M3 1173l217 184l380 -745q204 205 166 705l278 -11q-4 -530 -114 -741q-108 -209 -266.5 -377t-381.5 -310l-119 282l257 210z" />
    <glyph glyph-name="Z" unicode="Z" horiz-adv-x="1158" 
d="M43 1067l101 292h920l-33 -295q-284 -158 -461 -382q-180 -226 -196 -389l408 1q78 26 125 119l222 -147q-82 -180 -173 -230q-90 -50 -227 -36h-490q-77 -7 -125 38.5t-58 130.5t6 178q17 96 164 314q148 221 363 406h-546z" />
    <glyph glyph-name="bracketleft" unicode="[" horiz-adv-x="569" 
 />
    <glyph glyph-name="backslash" unicode="\" horiz-adv-x="569" 
 />
    <glyph glyph-name="bracketright" unicode="]" horiz-adv-x="569" 
 />
    <glyph glyph-name="asciicircum" unicode="^" horiz-adv-x="961" 
 />
    <glyph glyph-name="underscore" unicode="_" horiz-adv-x="1139" 
 />
    <glyph glyph-name="grave" unicode="`" horiz-adv-x="596" 
d="M256 1850l236 -244l-84 -99l-292 234z" />
    <glyph glyph-name="a" unicode="a" 
d="M515 1271l79 189l246 -93l-29 -96h396l-41 -296l-216 -1l343 -919l-265 -91l-352 940l-393 -932l-269 82l388 924l-283 1l22 292h374zM437 154l284 286l153 -168l-283 -284z" />
    <glyph glyph-name="b" unicode="b" horiz-adv-x="1150" 
d="M65 1075l36 284h624q200 -10 244 -95q43 -82 35 -180q-7 -95 -143 -244q210 8 234 -150v-436q-11 -117 -77 -182q-63 -63 -159 -86q-219 -52 -456 46l100 251q211 -67 264 -33q54 35 43 346l-378 -2v-246q-53 -383 -362 -347v253q46 -1 66 38.5t12 119.5v173h-80l1 255
l102 -2v237h-106zM685 1075h-253v-224l129 28q136 73 124 196z" />
    <glyph glyph-name="c" unicode="c" horiz-adv-x="1247" 
d="M167 1357h755q265 -63 282 -395h-265q-5 105 -135 95h-356q-110 -240 -116 -360q-5 -122 63 -230q69 -106 149 -153q80 -45 222 -31q141 13 261 182l179 -223q-155 -151 -253 -202q-100 -51 -257 -52q-161 -2 -291 62q-133 65 -242 237q-110 175 -98 396q12 223 58 285
l199 89h-238l16 95l23 91z" />
    <glyph glyph-name="d" unicode="d" horiz-adv-x="1217" 
d="M45 1062l48 297h882l192 -1v-608q13 -160 -31 -299.5t-159 -268.5q-117 -132 -261 -164q-140 -31 -655 -19l2 284l190 2l-112 56v721h-96zM862 1062h-432v-785q153 -21 262 46t147 169q37 99 23 570z" />
    <glyph glyph-name="e" unicode="e" horiz-adv-x="1163" 
d="M59 1061v291h989v-285l-571 -1v-159l452 -1l-32 -275h-420v-353l588 68l84 -302l-1042 -131l-32 302l118 20v394h-124l28 257l98 1l-1 116l161 59z" />
    <glyph glyph-name="f" unicode="f" horiz-adv-x="1036" 
d="M50 1073l49 287h891l-64 -287h-462l-1 -332l36 136l369 -75l-56 -297l-352 70l1 -538l-300 -63v1032l145 67h-256z" />
    <glyph glyph-name="g" unicode="g" horiz-adv-x="1294" 
d="M43 1051l102 301h1053l-50 -300h-719v-635q-5 -68 32.5 -97.5t118.5 -19.5h358l-1 235l-240 -1v284l535 -1v-817l-1 -78l-290 -56v238l-111 -104l-429 -1q-143 21 -207 109.5t-65 258.5v597l176 88z" />
    <glyph glyph-name="h" unicode="h" horiz-adv-x="1193" 
d="M58 -31l-2 1387h302v-464l440 3v457l302 2v-471h52l24 -275h-76v-440q-30 -90 -75 -120q-45 -28 -141 -45q-94 -15 -191 -15l-2 264q92 6 114 76v279l-367 1l-80 127v-715z" />
    <glyph glyph-name="i" unicode="i" horiz-adv-x="457" 
d="M82 1321l303 46l-1 -1366h-301z" />
    <glyph glyph-name="j" unicode="j" horiz-adv-x="698" 
d="M101 1072l68 285h470v-1045q-4 -131 -34 -236q-29 -100 -165 -203q-137 -106 -359 -128l-24 300q141 12 220 114q79 103 66 843l136 70h-378z" />
    <glyph glyph-name="k" unicode="k" horiz-adv-x="1171" 
d="M337 869l522 522l207 -207l-444 -447q224 -407 287 -419t152 62l109 -269q-109 -117 -208 -127q-99 -11 -197 25q-99 36 -367 538l-61 -66v-482h-285v1361h284z" />
    <glyph glyph-name="l" unicode="l" horiz-adv-x="1035" 
d="M150 648l2 715h297l-1 -715l170 -2l-29 -240l-133 -1v-89l534 1l-31 -314l-921 2l45 309h63v89h-98l26 244z" />
    <glyph glyph-name="m" unicode="m" horiz-adv-x="1403" 
d="M534 1355v101l316 -3v-98h339q123 -19 137 -138l-2 -907q-51 -216 -143 -275q-91 -58 -227 -58v303q82 -8 69 387v385h-170v-1008l-322 -57l1 1065h-132v-1025l-322 -41l-1 1009l109 65h-139l83 295h404z" />
    <glyph glyph-name="n" unicode="n" horiz-adv-x="1205" 
d="M50 -5l2 1362h290l-1 -216l34 84q192 -51 282 -115q93 -64 190 -207l14 -40l-1 492h288v-1122q7 -76 -67 -164q-74 -86 -301 -74v283q100 8 84 129q2 67 -30 147q-30 81 -190 212q-157 132 -303 173v-944h-291z" />
    <glyph glyph-name="o" unicode="o" horiz-adv-x="1247" 
d="M48 1302l294 61v-131l78 131h660q122 -35 115 -344v-901q-24 -111 -187 -115h-763q-170 -8 -197 148v1151zM900 1068h-558v-770h558v770z" />
    <glyph glyph-name="p" unicode="p" horiz-adv-x="1145" 
d="M105 1356h828q153 -29 157 -202l-2 -508q-14 -156 -165 -153h-411l-96 172v-454q-24 -152 -103 -189q-78 -36 -252 -34l-1 263q36 -8 52.5 42t12.5 159v531l156 87l-235 1zM788 1070h-380l1 -258l379 -1v259z" />
    <glyph glyph-name="q" unicode="q" horiz-adv-x="1259" 
d="M49 1062l69 300h951q144 -65 132 -259l-1 -916q-10 -175 -165 -186h-311l413 -89l-59 -269l-555 101l53 257l-389 -1q-104 15 -136 230v765l121 68zM905 1067h-558v-896l68 125h490v771z" />
    <glyph glyph-name="r" unicode="r" horiz-adv-x="1167" 
d="M46 1062l63 298h862q90 -10 125 -117l-2 -402q-28 -139 -84 -187q-59 -49 -196 -109l79 -126q89 -138 249 -159l-23 -308l-161 30q-156 31 -332 328l-63 120l-157 -74l-1 -357l-280 -2v266l-110 235l108 68l2 421l137 76zM814 1062h-408v-385l299 118q109 40 109 129v138
z" />
    <glyph glyph-name="s" unicode="s" horiz-adv-x="1112" 
d="M39 1072l56 290l742 1q121 -30 156 -135q36 -105 36 -184l-262 -52q0 94 -177 80h-206l629 -616q71 -90 18 -303q-52 -136 -257 -154l-505 1q-84 28 -136.5 107.5t-81.5 208.5l274 93q5 -57 28 -84.5t64 -25.5l267 -1q62 14 -20 88l-585 572l144 114h-184z" />
    <glyph glyph-name="t" unicode="t" horiz-adv-x="1015" 
d="M40 1063l30 297h908l-37 -300h-323v-649q-16 -151 102 -179l-73 -282q-137 -5 -232 89q-94 92 -97 246v715l129 62z" />
    <glyph glyph-name="u" unicode="u" horiz-adv-x="1243" 
d="M66 1323l307 53q-57 -525 -16 -705q43 -181 133 -283q92 -104 412 -50l-1 1024l290 -17v-1310l-290 -29v165l-52 -181l-63 -14q-282 -5 -425 79t-236 341q-93 255 -76 742z" />
    <glyph glyph-name="v" unicode="v" horiz-adv-x="1303" 
d="M3 1297l295 80l364 -1023q183 149 237 325q54 178 41 386l-146 -1l33 297l405 2q57 -231 19 -484q-37 -250 -122 -419q-85 -168 -252 -368l-144 55l68 -191l-305 -115z" />
    <glyph glyph-name="w" unicode="w" horiz-adv-x="1451" 
d="M-4 1298l291 69l168 -824q122 104 141 212t-34 310h-116l45 294l345 -1l170 -791q75 47 109 172q35 129 -17 334h-108l49 286l315 -1q91 -502 51 -667q-39 -164 -96 -265q-54 -98 -169 -199l-80 55l67 -313l-285 -104l-123 563q-40 -130 -129 -199l-66 32l56 -292
l-268 -119z" />
    <glyph glyph-name="x" unicode="x" horiz-adv-x="1260" 
d="M26 1210l240 188l434 -586q176 254 279 559l279 -112q-134 -348 -387 -672l363 -487l-252 -201l-317 433q-95 -113 -194 -197q-97 -83 -266 -177l-206 218q339 222 506 395z" />
    <glyph glyph-name="y" unicode="y" horiz-adv-x="1083" 
d="M3 1173l217 184l380 -745q204 205 166 705l278 -11q-4 -530 -114 -741q-108 -209 -266.5 -377t-381.5 -310l-119 282l257 210z" />
    <glyph glyph-name="z" unicode="z" horiz-adv-x="1158" 
d="M43 1067l101 292h920l-33 -295q-284 -158 -461 -382q-180 -226 -196 -389l408 1q78 26 125 119l222 -147q-82 -180 -173 -230q-90 -50 -227 -36h-490q-77 -7 -125 38.5t-58 130.5t6 178q17 96 164 314q148 221 363 406h-546z" />
    <glyph glyph-name="braceleft" unicode="{" horiz-adv-x="684" 
 />
    <glyph glyph-name="bar" unicode="|" horiz-adv-x="532" 
 />
    <glyph glyph-name="braceright" unicode="}" horiz-adv-x="684" 
 />
    <glyph glyph-name="asciitilde" unicode="~" horiz-adv-x="1196" 
 />
    <glyph glyph-name="exclamdown" unicode="&#xa1;" horiz-adv-x="510" 
d="M409 998l2 -994h-334l90 997zM409 1359l-1 -260h-241v261z" />
    <glyph glyph-name="cent" unicode="&#xa2;" horiz-adv-x="1139" 
 />
    <glyph glyph-name="sterling" unicode="&#xa3;" horiz-adv-x="1139" 
 />
    <glyph glyph-name="yen" unicode="&#xa5;" horiz-adv-x="1139" 
 />
    <glyph glyph-name="brokenbar" unicode="&#xa6;" horiz-adv-x="532" 
 />
    <glyph glyph-name="section" unicode="&#xa7;" horiz-adv-x="1139" 
 />
    <glyph glyph-name="dieresis" unicode="&#xa8;" horiz-adv-x="643" 
d="M259 1796l15 -248l-124 -25l-125 227zM366 1547l11 249l238 -51l-132 -227z" />
    <glyph glyph-name="copyright" unicode="&#xa9;" horiz-adv-x="1509" 
 />
    <glyph glyph-name="ordfeminine" unicode="&#xaa;" horiz-adv-x="758" 
 />
    <glyph glyph-name="guillemotleft" unicode="&#xab;" horiz-adv-x="951" 
d="M72 715v28l385 394l88 -95l-315 -325l315 -324l-88 -77zM381 715v27l385 395l88 -96l-315 -325l315 -324l-88 -76z" />
    <glyph glyph-name="logicalnot" unicode="&#xac;" horiz-adv-x="1196" 
 />
    <glyph glyph-name="registered" unicode="&#xae;" horiz-adv-x="1509" 
 />
    <glyph glyph-name="overscore" unicode="&#xaf;" horiz-adv-x="1131" 
 />
    <glyph glyph-name="degree" unicode="&#xb0;" horiz-adv-x="819" 
 />
    <glyph glyph-name="plusminus" unicode="&#xb1;" horiz-adv-x="1124" 
 />
    <glyph glyph-name="twosuperior" unicode="&#xb2;" horiz-adv-x="682" 
 />
    <glyph glyph-name="threesuperior" unicode="&#xb3;" horiz-adv-x="682" 
 />
    <glyph glyph-name="acute" unicode="&#xb4;" horiz-adv-x="596" 
d="M116 1606l236 244l140 -109l-292 -234z" />
    <glyph glyph-name="mu1" unicode="&#xb5;" horiz-adv-x="1180" 
 />
    <glyph glyph-name="paragraph" unicode="&#xb6;" horiz-adv-x="1100" 
 />
    <glyph glyph-name="middot" unicode="&#xb7;" horiz-adv-x="569" 
 />
    <glyph glyph-name="middot" unicode="&#x2219;" horiz-adv-x="569" 
 />
    <glyph glyph-name="cedilla" unicode="&#xb8;" horiz-adv-x="799" 
d="M260 -34l126 84q150 -151 150 -247q0 -131 -276 -156l-37 93q287 23 37 226z" />
    <glyph glyph-name="onesuperior" unicode="&#xb9;" horiz-adv-x="682" 
 />
    <glyph glyph-name="ordmasculine" unicode="&#xba;" horiz-adv-x="748" 
 />
    <glyph glyph-name="guillemotright" unicode="&#xbb;" horiz-adv-x="951" 
d="M883 743v-28l-385 -399l-88 77l315 324l-315 324l88 96zM574 742v-28l-385 -398l-88 76l315 324l-315 325l88 95z" />
    <glyph glyph-name="onequarter" unicode="&#xbc;" horiz-adv-x="1708" 
 />
    <glyph glyph-name="onehalf" unicode="&#xbd;" horiz-adv-x="1708" 
 />
    <glyph glyph-name="threequarters" unicode="&#xbe;" horiz-adv-x="1708" 
 />
    <glyph glyph-name="questiondown" unicode="&#xbf;" horiz-adv-x="1019" 
d="M784 3h-626q-97 28 -99 121l-2 312q24 76 76 132l174 167q66 65 66 184l1 120l291 -2l-1 -232q0 -69 -64 -133l-256 -254l-1 -74q-14 -38 20 -54t116 -12l129 -1q47 -10 69.5 9.5t20.5 66.5l263 -3v-233q-35 -109 -177 -114zM662 1359l-3 -254h-282v250z" />
    <glyph glyph-name="Agrave" unicode="&#xc0;" 
d="M518 1271l79 189l246 -93l-29 -96h396l-41 -296l-216 -1l343 -919l-265 -91l-352 940l-393 -932l-269 82l388 924l-283 1l22 292h374zM440 154l284 286l153 -168l-283 -284zM587 1850l236 -244l-84 -99l-292 234z" />
    <glyph glyph-name="Aacute" unicode="&#xc1;" 
d="M515 1271l79 189l246 -93l-29 -96h396l-41 -296l-216 -1l343 -919l-265 -91l-352 940l-393 -932l-269 82l388 924l-283 1l22 292h374zM437 154l284 286l153 -168l-283 -284zM613 1606l236 244l139 -109l-292 -234z" />
    <glyph glyph-name="Acircumflex" unicode="&#xc2;" 
d="M515 1271l79 189l246 -93l-29 -96h396l-41 -296l-216 -1l343 -919l-265 -91l-352 940l-393 -932l-269 82l388 924l-283 1l22 292h374zM437 154l284 286l153 -168l-283 -284zM687 1850l235 -244l-83 -99l-153 122l-153 -122l-84 99l236 244l1 -1z" />
    <glyph glyph-name="Atilde" unicode="&#xc3;" 
d="M515 1271l79 189l246 -93l-29 -96h396l-41 -296l-216 -1l343 -919l-265 -91l-352 940l-393 -932l-269 82l388 924l-283 1l22 292h374zM437 154l284 286l153 -168l-283 -284zM505 1533l-45 132q74 116 172 108q47 -5 89 -36q59 -46 102 -49q57 -6 98 85l46 -133
q-79 -116 -171 -108q-59 6 -100 45q-54 40 -86 43q-58 6 -105 -87z" />
    <glyph glyph-name="Adieresis" unicode="&#xc4;" 
d="M515 1271l79 189l246 -93l-29 -96h396l-41 -296l-216 -1l343 -919l-265 -91l-352 940l-393 -932l-269 82l388 924l-283 1l22 292h374zM437 154l284 286l153 -168l-283 -284zM605 1796l16 -249l-125 -25l-124 228zM713 1547l11 249l237 -51l-131 -227z" />
    <glyph glyph-name="Aring" unicode="&#xc5;" horiz-adv-x="1366" 
 />
    <glyph glyph-name="AE" unicode="&#xc6;" horiz-adv-x="1472" 
d="M724 482h-238l-214 -509l-269 81l388 924l-283 1l22 292h374l79 189l246 -93l-28 -94h642l-80 -302l-359 -2v-216h406l-48 -272l-365 1q-15 -59 26 -130q42 -69 139 -70h240l-49 -282q-315 -11 -386 27q-71 37 -147 123q-76 87 -96 255v77zM735 754v216l-45 -3l-89 -212z
" />
    <glyph glyph-name="Ccedilla" unicode="&#xc7;" horiz-adv-x="1247" 
d="M167 1357h755q265 -63 282 -395h-265q-5 105 -135 95h-356q-110 -240 -116 -360q-5 -122 63 -230q69 -106 149 -153q80 -45 222 -31q141 13 261 182l179 -223q-155 -151 -253 -202q-100 -51 -257 -52q-161 -2 -291 62q-133 65 -242 237q-110 175 -98 396q12 223 58 285
l199 89h-238l16 95l23 91zM530 -34l126 84q150 -152 150 -247q0 -131 -276 -156l-37 93q287 23 37 226z" />
    <glyph glyph-name="Egrave" unicode="&#xc8;" horiz-adv-x="1107" 
d="M58 1065l48 297h963l-80 -302l-486 -2v-149h533l-48 -272l-492 1q-15 -215 26 -286q42 -69 139 -70h366l-49 -283q-441 -11 -512 27q-69 37 -147 124q-77 87 -96 255v233l-165 -1l41 274l135 -1v156zM537 1790l236 -244l-84 -99l-292 234z" />
    <glyph glyph-name="Eacute" unicode="&#xc9;" horiz-adv-x="1107" 
d="M58 1065l48 297h963l-80 -302l-486 -2v-149h533l-48 -272l-492 1q-15 -215 26 -286q42 -69 139 -70h366l-49 -283q-441 -11 -512 27q-69 37 -147 124q-77 87 -96 255v233l-165 -1l41 274l135 -1v156zM539 1546l236 244l139 -109l-292 -234z" />
    <glyph glyph-name="Ecircumflex" unicode="&#xca;" horiz-adv-x="1107" 
d="M58 1065l48 297h963l-80 -302l-486 -2v-149h533l-48 -272l-492 1q-15 -215 26 -286q42 -69 139 -70h366l-49 -283q-441 -11 -512 27q-69 37 -147 124q-77 87 -96 255v233l-165 -1l41 274l135 -1v156zM628 1790l235 -244l-83 -99l-153 123l-153 -123l-84 99l236 244h1h1z
" />
    <glyph glyph-name="Edieresis" unicode="&#xcb;" horiz-adv-x="1163" 
d="M59 1061v291h989v-285l-571 -1v-159l452 -1l-32 -275h-420v-353l588 68l84 -302l-1042 -131l-32 302l118 20v394h-124l28 257l98 1l-1 116l161 59zM540 1796l16 -248l-125 -25l-124 227zM648 1548l11 249l237 -51l-131 -227z" />
    <glyph glyph-name="Igrave" unicode="&#xcc;" horiz-adv-x="698" 
d="M56 1072l29 288h545l-40 -288h-88v-795h112l-16 -279h-545l27 281l117 -1l2 723l126 71h-269zM305 1800l236 -244l-84 -99l-292 234z" />
    <glyph glyph-name="Iacute" unicode="&#xcd;" horiz-adv-x="698" 
d="M56 1072l29 288h545l-40 -288h-88v-795h112l-16 -279h-545l27 281l117 -1l2 723l126 71h-269zM246 1556l236 244l139 -109l-292 -234z" />
    <glyph glyph-name="Icircumflex" unicode="&#xce;" horiz-adv-x="457" 
d="M82 1321l303 46l-1 -1366h-302v1320zM233 1850l188 -244l-66 -99l-122 123l-123 -123l-67 99l189 244l1 -1v1z" />
    <glyph glyph-name="Idieresis" unicode="&#xcf;" horiz-adv-x="457" 
d="M82 1321l303 46v-1366h-302zM176 1796l15 -248l-124 -25l-125 227zM283 1547l11 249l238 -51l-132 -227z" />
    <glyph glyph-name="Eth" unicode="&#xd0;" horiz-adv-x="1479" 
 />
    <glyph glyph-name="Ntilde" unicode="&#xd1;" horiz-adv-x="1205" 
d="M50 -5l2 1362h290l-1 -216l34 84q192 -51 282 -115q93 -64 190 -207l14 -40l-1 492h288v-1122q7 -76 -67 -164q-74 -86 -301 -74v283q100 8 84 129q2 67 -30 147q-30 81 -190 212q-157 132 -303 173v-944h-291zM308 1507l-75 137q116 260 344 132q245 -149 298 58
l75 -136q-127 -272 -359 -118q-216 133 -283 -73z" />
    <glyph glyph-name="Ograve" unicode="&#xd2;" horiz-adv-x="1247" 
d="M48 1302l294 61v-131l78 131h660q122 -35 115 -344v-901q-24 -111 -187 -115h-763q-170 -8 -197 148v1151zM900 1068h-558v-770h558v770zM561 1800l236 -244l-84 -99l-292 234z" />
    <glyph glyph-name="Oacute" unicode="&#xd3;" horiz-adv-x="1247" 
d="M48 1302l294 61v-131l78 131h660q122 -35 115 -344v-901q-24 -111 -187 -115h-763q-170 -8 -197 148v1151zM900 1068h-558v-770h558v770zM565 1556l236 244l139 -109l-292 -234z" />
    <glyph glyph-name="Ocircumflex" unicode="&#xd4;" horiz-adv-x="1247" 
d="M48 1302l294 61v-131l78 131h660q122 -35 115 -344v-901q-24 -111 -187 -115h-763q-170 -8 -197 148v1151zM900 1068h-558v-770h558v770zM635 1800l235 -244l-83 -99l-153 123l-153 -123l-84 99l236 244h1h1z" />
    <glyph glyph-name="Otilde" unicode="&#xd5;" horiz-adv-x="1247" 
d="M48 1302l294 61v-131l78 131h660q122 -35 115 -344v-901q-24 -111 -187 -115h-763q-170 -8 -197 148v1151zM900 1068h-558v-770h558v770zM417 1483l-45 132q74 116 172 108q47 -5 89 -36q59 -46 102 -49q57 -6 98 85l46 -133q-79 -116 -171 -108q-59 6 -100 45
q-54 40 -86 43q-58 6 -105 -87z" />
    <glyph glyph-name="Odieresis" unicode="&#xd6;" horiz-adv-x="1247" 
d="M48 1302l294 61v-131l78 131h660q122 -35 115 -344v-901q-24 -111 -187 -115h-763q-170 -8 -197 148v1151zM900 1068h-558v-770h558v770zM574 1796l16 -248l-125 -25l-124 227zM682 1548l11 249l237 -51l-131 -227z" />
    <glyph glyph-name="multiply" unicode="&#xd7;" horiz-adv-x="1196" 
 />
    <glyph glyph-name="Oslash" unicode="&#xd8;" horiz-adv-x="1593" 
 />
    <glyph glyph-name="Ugrave" unicode="&#xd9;" horiz-adv-x="1243" 
d="M66 1323l307 53q-57 -525 -16 -705q43 -181 133 -283q92 -104 412 -50l-1 1024l290 -17v-1310l-290 -29v165l-52 -181l-63 -14q-282 -5 -425 79t-236 341q-93 255 -76 742zM560 1800l236 -244l-84 -99l-292 234z" />
    <glyph glyph-name="Uacute" unicode="&#xda;" horiz-adv-x="1243" 
d="M66 1323l307 53q-57 -525 -16 -705q43 -181 133 -283q92 -104 412 -50l-1 1024l290 -17v-1310l-290 -29v165l-52 -181l-63 -14q-282 -5 -425 79t-236 341q-93 255 -76 742zM565 1556l236 244l139 -109l-292 -234z" />
    <glyph glyph-name="Ucircumflex" unicode="&#xdb;" horiz-adv-x="1243" 
d="M66 1323l307 53q-57 -525 -16 -705q43 -181 133 -283q92 -104 412 -50l-1 1024l290 -17v-1310l-290 -29v165l-52 -181l-63 -14q-282 -5 -425 79t-236 341q-93 255 -76 742zM650 1850l235 -244l-83 -99l-153 123l-153 -123l-84 99l236 244h1h1z" />
    <glyph glyph-name="Udieresis" unicode="&#xdc;" horiz-adv-x="1243" 
d="M66 1323l307 53q-57 -525 -16 -705q43 -181 133 -283q92 -104 412 -50l-1 1024l290 -17v-1310l-290 -29v165l-52 -181l-63 -14q-282 -5 -425 79t-236 341q-93 255 -76 742zM591 1796l16 -248l-125 -25l-124 227zM699 1547l11 249l237 -51l-131 -227z" />
    <glyph glyph-name="Yacute" unicode="&#xdd;" horiz-adv-x="1083" 
d="M3 1173l217 184l380 -745q204 205 166 705l278 -11q-4 -530 -114 -741q-108 -209 -266.5 -377t-381.5 -310l-119 282l257 210zM469 1556l236 244l139 -109l-292 -234z" />
    <glyph glyph-name="Thorn" unicode="&#xde;" horiz-adv-x="1366" 
 />
    <glyph glyph-name="germandbls" unicode="&#xdf;" horiz-adv-x="1157" 
d="M453 731l253 345l-103 -2q-250 -49 -252 -178l1 -932l-284 63l1 866q-1 208 133.5 324.5t405.5 142.5l316 3l121 -280l-210 -326q262 -23 269 -294q9 -271 -71 -363q-79 -92 -174 -114q-219 -52 -355 16l-1 303q211 -77 264 -42t47 146q-4 111 -277 113z" />
    <glyph glyph-name="agrave" unicode="&#xe0;" 
d="M518 1271l79 189l246 -93l-29 -96h396l-41 -296l-216 -1l343 -919l-265 -91l-352 940l-393 -932l-269 82l388 924l-283 1l22 292h374zM440 154l284 286l153 -168l-283 -284zM587 1850l236 -244l-84 -99l-292 234z" />
    <glyph glyph-name="aacute" unicode="&#xe1;" 
d="M515 1271l79 189l246 -93l-29 -96h396l-41 -296l-216 -1l343 -919l-265 -91l-352 940l-393 -932l-269 82l388 924l-283 1l22 292h374zM437 154l284 286l153 -168l-283 -284zM613 1606l236 244l140 -109l-292 -234z" />
    <glyph glyph-name="acircumflex" unicode="&#xe2;" 
d="M515 1271l79 189l246 -93l-29 -96h396l-41 -296l-216 -1l343 -919l-265 -91l-352 940l-393 -932l-269 82l388 924l-283 1l22 292h374zM437 154l284 286l153 -168l-283 -284zM687 1850l235 -244l-83 -99l-153 123l-153 -123l-84 99l236 244l1 -1z" />
    <glyph glyph-name="atilde" unicode="&#xe3;" 
d="M505 1533l-45 132q74 116 172 108q47 -5 89 -36q59 -46 102 -49q57 -6 98 85l46 -133q-79 -116 -171 -108q-59 6 -100 45q-54 40 -86 43q-58 6 -105 -87zM515 1271l79 189l246 -93l-29 -96h396l-41 -296l-216 -1l343 -919l-265 -91l-352 940l-393 -932l-269 82l388 924
l-283 1l22 292h374zM437 154l284 286l153 -168l-283 -284z" />
    <glyph glyph-name="adieresis" unicode="&#xe4;" 
d="M515 1271l79 189l246 -93l-29 -96h396l-41 -296l-216 -1l343 -919l-265 -91l-352 940l-393 -932l-269 82l388 924l-283 1l22 292h374zM437 154l284 286l153 -168l-283 -284zM606 1796l15 -248l-124 -25l-125 227zM713 1547l11 249l238 -51l-132 -227z" />
    <glyph glyph-name="aring" unicode="&#xe5;" horiz-adv-x="1139" 
 />
    <glyph glyph-name="ae" unicode="&#xe6;" horiz-adv-x="1472" 
d="M724 482h-238l-214 -509l-269 81l388 924l-283 1l22 292h374l79 189l246 -93l-28 -94h642l-80 -302l-359 -2v-216h406l-48 -272l-365 1q-15 -59 26 -130q42 -69 139 -70h240l-49 -282q-315 -11 -386 27q-71 37 -147 123q-76 87 -96 255v77zM735 754v216l-45 -3l-89 -212z
" />
    <glyph glyph-name="ccedilla" unicode="&#xe7;" horiz-adv-x="1247" 
d="M167 1357h755q265 -63 282 -395h-265q-5 105 -135 95h-356q-110 -240 -116 -360q-5 -122 63 -230q69 -106 149 -153q80 -45 222 -31q141 13 261 182l179 -223q-155 -151 -253 -202q-100 -51 -257 -52q-161 -2 -291 62q-133 65 -242 237q-110 175 -98 396q12 223 58 285
l199 89h-238l16 95l23 91zM530 -34l126 84q150 -152 150 -247q0 -131 -276 -156l-37 93q287 23 37 226z" />
    <glyph glyph-name="egrave" unicode="&#xe8;" horiz-adv-x="1163" 
d="M527 1790l236 -244l-84 -99l-292 234zM59 1061v291h989v-285l-571 -1v-159l452 -1l-32 -275h-420v-353l588 68l84 -302l-1042 -131l-32 302l118 20v394h-124l28 257l98 1l-1 116l161 59z" />
    <glyph glyph-name="eacute" unicode="&#xe9;" horiz-adv-x="1163" 
d="M501 1546l236 244l139 -109l-292 -234zM59 1061v291h989v-285l-571 -1v-159l452 -1l-32 -275h-420v-353l588 68l84 -302l-1042 -131l-32 302l118 20v394h-124l28 257l98 1l-1 116l161 59z" />
    <glyph glyph-name="ecircumflex" unicode="&#xea;" horiz-adv-x="1163" 
d="M599 1790l235 -244l-83 -99l-153 123l-153 -123l-84 99l236 244h1h1zM59 1061v291h989v-285l-571 -1v-159l452 -1l-32 -275h-420v-353l588 68l84 -302l-1042 -131l-32 302l118 20v394h-124l28 257l98 1l-1 116l161 59z" />
    <glyph glyph-name="edieresis" unicode="&#xeb;" horiz-adv-x="1163" 
d="M59 1061v291h989v-285l-571 -1v-159l452 -1l-32 -275h-420v-353l588 68l84 -302l-1042 -131l-32 302l118 20v394h-124l28 257l98 1l-1 116l161 59zM541 1796l15 -248l-124 -25l-125 227zM648 1547l11 249l238 -51l-132 -227z" />
    <glyph glyph-name="igrave" unicode="&#xec;" horiz-adv-x="457" 
d="M193 1800l236 -244l-84 -99l-292 234zM83 1321l303 46l-1 -1366h-301z" />
    <glyph glyph-name="iacute" unicode="&#xed;" horiz-adv-x="457" 
d="M106 1556l236 244l139 -109l-292 -234zM82 1321l303 46l-1 -1366h-301z" />
    <glyph glyph-name="icircumflex" unicode="&#xee;" horiz-adv-x="457" 
d="M82 1321l303 46l-1 -1366h-301zM234 1850l188 -244l-67 -99l-122 123l-122 -123l-68 99l189 244l1 -1z" />
    <glyph glyph-name="idieresis" unicode="&#xef;" horiz-adv-x="457" 
d="M82 1321l303 46l-1 -1366h-301zM176 1796l15 -248l-124 -25l-125 227zM283 1547l11 249l238 -51l-132 -227z" />
    <glyph glyph-name="eth" unicode="&#xf0;" horiz-adv-x="1139" 
 />
    <glyph glyph-name="ntilde" unicode="&#xf1;" horiz-adv-x="1205" 
d="M50 -5l2 1362h290l-1 -216l34 84q192 -51 282 -115q93 -64 190 -207l14 -40l-1 492h288v-1122q7 -76 -67 -164q-74 -86 -301 -74v283q100 8 84 129q2 67 -30 147q-30 81 -190 212q-157 132 -303 173v-944h-291zM308 1508l-75 136q116 260 344 132q245 -149 299 59
l74 -137q-126 -272 -359 -117q-215 133 -283 -73z" />
    <glyph glyph-name="ograve" unicode="&#xf2;" horiz-adv-x="1247" 
d="M561 1800l236 -244l-84 -99l-292 234zM48 1302l294 61v-131l78 131h660q122 -35 115 -344v-901q-24 -111 -187 -115h-763q-170 -8 -197 148v1151zM900 1068h-558v-770h558v770z" />
    <glyph glyph-name="oacute" unicode="&#xf3;" horiz-adv-x="1247" 
d="M565 1556l236 244l139 -109l-292 -234zM48 1302l294 61v-131l78 131h660q122 -35 115 -344v-901q-24 -111 -187 -115h-763q-170 -8 -197 148v1151zM900 1068h-558v-770h558v770z" />
    <glyph glyph-name="ocircumflex" unicode="&#xf4;" horiz-adv-x="1247" 
d="M635 1800l235 -244l-83 -99l-153 123l-153 -123l-84 99l236 244h1h1zM48 1302l294 61v-131l78 131h660q122 -35 115 -344v-901q-24 -111 -187 -115h-763q-170 -8 -197 148v1151zM900 1068h-558v-770h558v770z" />
    <glyph glyph-name="otilde" unicode="&#xf5;" horiz-adv-x="1247" 
d="M417 1483l-45 132q74 116 172 108q47 -5 89 -36q59 -46 102 -49q57 -6 98 85l46 -133q-79 -116 -171 -108q-59 6 -100 45q-54 40 -86 43q-58 6 -105 -87zM48 1302l294 61v-131l78 131h660q122 -35 115 -344v-901q-24 -111 -187 -115h-763q-170 -8 -197 148v1151z
M900 1068h-558v-770h558v770z" />
    <glyph glyph-name="odieresis" unicode="&#xf6;" horiz-adv-x="1247" 
d="M48 1302l294 61v-131l78 131h660q122 -35 115 -344v-901q-24 -111 -187 -115h-763q-170 -8 -197 148v1151zM900 1068h-558v-770h558v770zM575 1796l15 -248l-124 -25l-125 227zM682 1547l11 249l238 -51l-132 -227z" />
    <glyph glyph-name="divide" unicode="&#xf7;" horiz-adv-x="1124" 
 />
    <glyph glyph-name="oslash" unicode="&#xf8;" horiz-adv-x="1251" 
 />
    <glyph glyph-name="ugrave" unicode="&#xf9;" horiz-adv-x="1243" 
d="M560 1800l236 -244l-84 -99l-292 234zM66 1323l307 53q-57 -525 -16 -705q43 -181 133 -283q92 -104 412 -50l-1 1024l290 -17v-1310l-290 -29v165l-52 -181l-63 -14q-282 -5 -425 79t-236 341q-93 255 -76 742z" />
    <glyph glyph-name="uacute" unicode="&#xfa;" horiz-adv-x="1243" 
d="M565 1556l236 244l139 -109l-292 -234zM66 1323l307 53q-57 -525 -16 -705q43 -181 133 -283q92 -104 412 -50l-1 1024l290 -17v-1310l-290 -29v165l-52 -181l-63 -14q-282 -5 -425 79t-236 341q-93 255 -76 742z" />
    <glyph glyph-name="ucircumflex" unicode="&#xfb;" horiz-adv-x="1243" 
d="M66 1323l307 53q-57 -525 -16 -705q43 -181 133 -283q92 -104 412 -50l-1 1024l290 -17v-1310l-290 -29v165l-52 -181l-63 -14q-282 -5 -425 79t-236 341q-93 255 -76 742zM650 1850l235 -244l-83 -99l-153 123l-153 -123l-84 99l236 244l1 -1z" />
    <glyph glyph-name="udieresis" unicode="&#xfc;" horiz-adv-x="1243" 
d="M66 1323l307 53q-57 -525 -16 -705q43 -181 133 -283q92 -104 412 -50l-1 1024l290 -17v-1310l-290 -29v165l-52 -181l-63 -14q-282 -5 -425 79t-236 341q-93 255 -76 742zM592 1796l15 -248l-124 -25l-125 227zM699 1547l11 249l238 -51l-132 -227z" />
    <glyph glyph-name="yacute" unicode="&#xfd;" horiz-adv-x="1083" 
d="M3 1173l217 184l380 -745q204 205 166 705l278 -11q-4 -530 -114 -741q-108 -209 -266.5 -377t-381.5 -310l-119 282l257 210zM469 1556l236 244l139 -109l-292 -234z" />
    <glyph glyph-name="thorn" unicode="&#xfe;" horiz-adv-x="1139" 
 />
    <glyph glyph-name="ydieresis" unicode="&#xff;" horiz-adv-x="1024" 
 />
    <glyph glyph-name="Abreve" unicode="&#x102;" 
d="M515 1271l79 189l246 -93l-29 -96h396l-41 -296l-216 -1l343 -919l-265 -91l-352 940l-393 -932l-269 82l388 924l-283 1l22 292h374zM437 154l284 286l153 -168l-283 -284zM774 1529h-169l-158 160l84 99l159 -122l159 122l83 -99z" />
    <glyph glyph-name="abreve" unicode="&#x103;" 
d="M515 1271l79 189l246 -93l-29 -96h396l-41 -296l-216 -1l343 -919l-265 -91l-352 940l-393 -932l-269 82l388 924l-283 1l22 292h374zM437 154l284 286l153 -168l-283 -284zM774 1529h-169l-158 160l84 99l159 -122l159 122l83 -99z" />
    <glyph glyph-name="Dslash" unicode="&#x110;" horiz-adv-x="1217" 
d="M33 577l35 217h73v268h-96l48 297h882l192 -1v-608q13 -160 -31 -299.5t-159 -268.5q-117 -132 -261 -164q-140 -31 -655 -19l2 284l190 2l-112 56v236h-108zM862 1062h-432v-268h165l-35 -217h-130v-300q153 -21 262 46t147 169q37 99 23 570z" />
    <glyph glyph-name="dmacron" unicode="&#x111;" horiz-adv-x="1217" 
d="M33 577l35 217h73v268h-96l48 297h882l192 -1v-608q13 -160 -31 -299.5t-159 -268.5q-117 -132 -261 -164q-140 -31 -655 -19l2 284l190 2l-112 56v236h-108zM862 1062h-432v-268h165l-35 -217h-130v-300q153 -21 262 46t147 169q37 99 23 570z" />
    <glyph glyph-name="Itilde" unicode="&#x128;" horiz-adv-x="698" 
d="M56 1072l29 288h545l-40 -288h-88v-795h112l-16 -279h-545l27 281l117 -1l2 723l126 71h-269zM158 1483l-45 132q74 116 172 108q47 -5 89 -36q59 -46 102 -49q57 -6 98 85l46 -133q-79 -116 -171 -108q-59 6 -100 45q-54 40 -86 43q-58 6 -105 -87z" />
    <glyph glyph-name="itilde" unicode="&#x129;" horiz-adv-x="457" 
d="M82 1321l303 46l-1 -1366h-301zM25 1483l-45 132q74 116 172 108q47 -5 89 -36q59 -46 102 -49q57 -6 98 85l46 -133q-79 -116 -171 -108q-59 6 -100 45q-54 40 -86 43q-58 6 -105 -87z" />
    <glyph glyph-name="OE" unicode="&#x152;" horiz-adv-x="1400" 
d="M627 1068h-287v-770h287v770zM813 120q6 -57 -24 -86.5t-97 -30.5h-449q-170 -5 -197 148v1151l294 61v-131l78 131h389q1 0 2 -1l545 1l-80 -302l-342 -3v-149l389 1l-48 -272h-348q-2 -38 -3 -55v-94q5 -96 30 -136q40 -69 138 -71l222 1l-49 -283l-257 2
q-137 13 -193 118z" />
    <glyph glyph-name="oe" unicode="&#x153;" horiz-adv-x="1400" 
d="M627 1068h-287v-770h287v770zM813 120q6 -57 -24 -86.5t-97 -30.5h-449q-170 -5 -197 148v1151l294 61v-131l78 131h389q1 0 2 -1l545 1l-80 -302l-342 -3v-149l389 1l-48 -272h-348q-2 -38 -3 -55v-94q5 -96 30 -136q40 -69 138 -71l222 1l-49 -283l-257 2
q-137 13 -193 118z" />
    <glyph glyph-name="Scaron" unicode="&#x160;" horiz-adv-x="1366" 
 />
    <glyph glyph-name="scaron" unicode="&#x161;" horiz-adv-x="1024" 
 />
    <glyph glyph-name="Utilde" unicode="&#x168;" horiz-adv-x="1243" 
d="M66 1323l307 53q-57 -525 -16 -705q43 -181 133 -283q92 -104 412 -50l-1 1024l290 -17v-1310l-290 -29v165l-52 -181l-63 -14q-282 -5 -425 79t-236 341q-93 255 -76 742zM446 1483l-45 132q74 116 172 108q47 -5 89 -36q59 -46 102 -49q57 -6 98 85l46 -133
q-79 -116 -171 -108q-59 6 -100 45q-54 40 -86 43q-58 6 -105 -87z" />
    <glyph glyph-name="utilde" unicode="&#x169;" horiz-adv-x="1243" 
d="M66 1323l307 53q-57 -525 -16 -705q43 -181 133 -283q92 -104 412 -50l-1 1024l290 -17v-1310l-290 -29v165l-52 -181l-63 -14q-282 -5 -425 79t-236 341q-93 255 -76 742zM446 1483l-45 132q74 116 172 108q47 -5 89 -36q59 -46 102 -49q57 -6 98 85l46 -133
q-79 -116 -171 -108q-59 6 -100 45q-54 40 -86 43q-58 6 -105 -87z" />
    <glyph glyph-name="Ydieresis" unicode="&#x178;" horiz-adv-x="1366" 
 />
    <glyph glyph-name="Zcaron" unicode="&#x17d;" horiz-adv-x="1251" 
 />
    <glyph glyph-name="zcaron" unicode="&#x17e;" horiz-adv-x="1024" 
 />
    <glyph glyph-name="florin" unicode="&#x192;" horiz-adv-x="1139" 
 />
    <glyph glyph-name="Ohorn" unicode="&#x1a0;" horiz-adv-x="1260" 
d="M48 1302l294 61v-131l78 131h632l121 195l240 -61l-167 -271l-71 16q23 -86 20 -223v-901q-24 -111 -187 -115h-763q-170 -8 -197 148v1151zM900 1068h-558v-770h558v770z" />
    <glyph glyph-name="ohorn" unicode="&#x1a1;" horiz-adv-x="1260" 
d="M48 1302l294 61v-131l78 131h632l121 195l240 -61l-167 -271l-71 16q23 -86 20 -223v-901q-24 -111 -187 -115h-763q-170 -8 -197 148v1151zM900 1068h-558v-770h558v770z" />
    <glyph glyph-name="Uhorn" unicode="&#x1af;" horiz-adv-x="1256" 
d="M66 1323l307 53q-57 -525 -16 -705q43 -181 133 -283q92 -104 412 -50l-1 1024l156 -9l127 205l240 -61l-167 -271l-66 15v-1206l-290 -29v165l-52 -181l-63 -14q-282 -5 -425 79t-236 341q-93 255 -76 742z" />
    <glyph glyph-name="uhorn" unicode="&#x1b0;" horiz-adv-x="1256" 
d="M66 1323l307 53q-57 -525 -16 -705q43 -181 133 -283q92 -104 412 -50l-1 1024l156 -9l127 205l240 -61l-167 -271l-66 15v-1206l-290 -29v165l-52 -181l-63 -14q-282 -5 -425 79t-236 341q-93 255 -76 742z" />
    <glyph glyph-name="circumflex" unicode="&#x2c6;" horiz-adv-x="702" 
d="M366 1850l235 -244l-83 -99l-153 123l-153 -123l-84 99l236 244l1 -1z" />
    <glyph glyph-name="tilde" unicode="&#x2dc;" horiz-adv-x="731" 
d="M77 1508l-75 136q116 260 344 132q245 -149 299 59l74 -137q-126 -272 -359 -117q-215 133 -283 -73z" />
    <glyph glyph-name="mu" unicode="&#x3bc;" horiz-adv-x="1180" 
 />
    <glyph glyph-name="uni1EA0" unicode="&#x1ea0;" 
d="M524 -400v246h257v-246h-257zM515 1271l79 189l246 -93l-29 -96h396l-41 -296l-216 -1l343 -919l-265 -91l-352 940l-393 -932l-269 82l388 924l-283 1l22 292h374zM437 154l284 286l153 -168l-283 -284z" />
    <glyph glyph-name="uni1EA1" unicode="&#x1ea1;" 
d="M524 -400v246h257v-246h-257zM515 1271l79 189l246 -93l-29 -96h396l-41 -296l-216 -1l343 -919l-265 -91l-352 940l-393 -932l-269 82l388 924l-283 1l22 292h374zM437 154l284 286l153 -168l-283 -284z" />
    <glyph glyph-name="uni1EA2" unicode="&#x1ea2;" 
d="M591 1740l44 121q176 -5 239 -96q64 -90 -111 -238l-104 54q184 142 -68 159zM515 1271l79 189l246 -93l-29 -96h396l-41 -296l-216 -1l343 -919l-265 -91l-352 940l-393 -932l-269 82l388 924l-283 1l22 292h374zM437 154l284 286l153 -168l-283 -284z" />
    <glyph glyph-name="uni1EA3" unicode="&#x1ea3;" 
d="M591 1740l44 121q176 -5 239 -96q64 -90 -111 -238l-104 54q184 142 -68 159zM515 1271l79 189l246 -93l-29 -96h396l-41 -296l-216 -1l343 -919l-265 -91l-352 940l-393 -932l-269 82l388 924l-283 1l22 292h374zM437 154l284 286l153 -168l-283 -284z" />
    <glyph glyph-name="uni1EA4" unicode="&#x1ea4;" 
d="M843 1789l178 194l147 -109l-242 -184zM515 1271l79 189l246 -93l-29 -96h396l-41 -296l-216 -1l343 -919l-265 -91l-352 940l-393 -932l-269 82l388 924l-283 1l22 292h374zM437 154l284 286l153 -168l-283 -284zM687 1850l235 -244l-83 -99l-153 122l-153 -122l-84 99
l236 244l1 -1z" />
    <glyph glyph-name="uni1EA5" unicode="&#x1ea5;" 
d="M843 1789l178 194l147 -109l-242 -184zM515 1271l79 189l246 -93l-29 -96h396l-41 -296l-216 -1l343 -919l-265 -91l-352 940l-393 -932l-269 82l388 924l-283 1l22 292h374zM437 154l284 286l153 -168l-283 -284zM687 1850l235 -244l-83 -99l-153 123l-153 -123l-84 99
l236 244l1 -1z" />
    <glyph glyph-name="uni1EA6" unicode="&#x1ea6;" 
d="M882 1983l178 -194l-83 -99l-242 184zM594 1460l-79 -189h-374l-22 -292l283 -1l-388 -924l269 -82l393 932l352 -940l265 91l-343 919l216 1l41 296h-396l29 96zM721 440l-284 -286l154 -166l283 284zM922 1606l-235 244l-1 -1l-1 1l-236 -244l84 -99l153 122l153 -122z
" />
    <glyph glyph-name="uni1EA7" unicode="&#x1ea7;" 
d="M882 1983l178 -194l-83 -99l-242 184zM594 1460l-79 -189h-374l-22 -292l283 -1l-388 -924l269 -82l393 932l352 -940l265 91l-343 919l216 1l41 296h-396l29 96zM721 440l-284 -286l154 -166l283 284zM922 1606l-235 244l-1 -1l-1 1l-236 -244l84 -99l153 123l153 -123z
" />
    <glyph glyph-name="uni1EA8" unicode="&#x1ea8;" 
d="M790 1910l44 121q176 -5 239 -96q64 -90 -111 -238l-104 54q184 142 -68 159zM515 1271l79 189l246 -93l-29 -96h396l-41 -296l-216 -1l343 -919l-265 -91l-352 940l-393 -932l-269 82l388 924l-283 1l22 292h374zM437 154l284 286l153 -168l-283 -284zM687 1850
l235 -244l-83 -99l-153 122l-153 -122l-84 99l236 244l1 -1z" />
    <glyph glyph-name="uni1EA9" unicode="&#x1ea9;" 
d="M790 1910l44 121q176 -5 239 -96q64 -90 -111 -238l-104 54q184 142 -68 159zM515 1271l79 189l246 -93l-29 -96h396l-41 -296l-216 -1l343 -919l-265 -91l-352 940l-393 -932l-269 82l388 924l-283 1l22 292h374zM437 154l284 286l153 -168l-283 -284zM687 1850
l235 -244l-83 -99l-153 123l-153 -123l-84 99l236 244l1 -1z" />
    <glyph glyph-name="uni1EAA" unicode="&#x1eaa;" 
d="M522 1853l-45 132q74 116 172 108q47 -5 89 -36q59 -46 102 -49q57 -6 98 85l46 -133q-79 -116 -171 -108q-59 6 -100 45q-54 40 -86 43q-58 6 -105 -87zM515 1271l79 189l246 -93l-29 -96h396l-41 -296l-216 -1l343 -919l-265 -91l-352 940l-393 -932l-269 82l388 924
l-283 1l22 292h374zM437 154l284 286l153 -168l-283 -284zM687 1850l235 -244l-83 -99l-153 122l-153 -122l-84 99l236 244l1 -1z" />
    <glyph glyph-name="uni1EAB" unicode="&#x1eab;" 
d="M522 1853l-45 132q74 116 172 108q47 -5 89 -36q59 -46 102 -49q57 -6 98 85l46 -133q-79 -116 -171 -108q-59 6 -100 45q-54 40 -86 43q-58 6 -105 -87zM515 1271l79 189l246 -93l-29 -96h396l-41 -296l-216 -1l343 -919l-265 -91l-352 940l-393 -932l-269 82l388 924
l-283 1l22 292h374zM437 154l284 286l153 -168l-283 -284zM687 1850l235 -244l-83 -99l-153 123l-153 -123l-84 99l236 244l1 -1z" />
    <glyph glyph-name="uni1EAC" unicode="&#x1eac;" 
d="M524 -400v246h257v-246h-257zM515 1271l79 189l246 -93l-29 -96h396l-41 -296l-216 -1l343 -919l-265 -91l-352 940l-393 -932l-269 82l388 924l-283 1l22 292h374zM437 154l284 286l153 -168l-283 -284zM687 1850l235 -244l-83 -99l-153 122l-153 -122l-84 99l236 244
l1 -1z" />
    <glyph glyph-name="uni1EAD" unicode="&#x1ead;" 
d="M524 -400v246h257v-246h-257zM515 1271l79 189l246 -93l-29 -96h396l-41 -296l-216 -1l343 -919l-265 -91l-352 940l-393 -932l-269 82l388 924l-283 1l22 292h374zM437 154l284 286l153 -168l-283 -284zM687 1850l235 -244l-83 -99l-153 123l-153 -123l-84 99l236 244
l1 -1z" />
    <glyph glyph-name="uni1EAE" unicode="&#x1eae;" 
d="M609 1864l178 194l147 -109l-242 -184zM515 1271l79 189l246 -93l-29 -96h396l-41 -296l-216 -1l343 -919l-265 -91l-352 940l-393 -932l-269 82l388 924l-283 1l22 292h374zM437 154l284 286l153 -168l-283 -284zM774 1529h-169l-158 160l84 99l159 -122l159 122l83 -99
z" />
    <glyph glyph-name="uni1EAF" unicode="&#x1eaf;" 
d="M609 1864l178 194l147 -109l-242 -184zM515 1271l79 189l246 -93l-29 -96h396l-41 -296l-216 -1l343 -919l-265 -91l-352 940l-393 -932l-269 82l388 924l-283 1l22 292h374zM437 154l284 286l153 -168l-283 -284zM774 1529h-169l-158 160l84 99l159 -122l159 122l83 -99
z" />
    <glyph glyph-name="uni1EB0" unicode="&#x1eb0;" 
d="M609 2058l178 -194l-83 -99l-242 184zM594 1460l-79 -189h-374l-22 -292l283 -1l-388 -924l269 -82l393 932l352 -940l265 91l-343 919l216 1l41 296h-396l29 96zM721 440l-284 -286l154 -166l283 284zM605 1529h169l158 160l-83 99l-159 -122l-159 122l-84 -99z" />
    <glyph glyph-name="uni1EB1" unicode="&#x1eb1;" 
d="M609 2058l178 -194l-83 -99l-242 184zM594 1460l-79 -189h-374l-22 -292l283 -1l-388 -924l269 -82l393 932l352 -940l265 91l-343 919l216 1l41 296h-396l29 96zM721 440l-284 -286l154 -166l283 284zM605 1529h169l158 160l-83 99l-159 -122l-159 122l-84 -99z" />
    <glyph glyph-name="uni1EB2" unicode="&#x1eb2;" 
d="M547 1969l44 121q176 -5 239 -96q64 -90 -111 -238l-104 54q184 142 -68 159zM515 1271l79 189l246 -93l-29 -96h396l-41 -296l-216 -1l343 -919l-265 -91l-352 940l-393 -932l-269 82l388 924l-283 1l22 292h374zM437 154l284 286l153 -168l-283 -284zM774 1529h-169
l-158 160l84 99l159 -122l159 122l83 -99z" />
    <glyph glyph-name="uni1EB3" unicode="&#x1eb3;" 
d="M547 1969l44 121q176 -5 239 -96q64 -90 -111 -238l-104 54q184 142 -68 159zM515 1271l79 189l246 -93l-29 -96h396l-41 -296l-216 -1l343 -919l-265 -91l-352 940l-393 -932l-269 82l388 924l-283 1l22 292h374zM437 154l284 286l153 -168l-283 -284zM774 1529h-169
l-158 160l84 99l159 -122l159 122l83 -99z" />
    <glyph glyph-name="uni1EB4" unicode="&#x1eb4;" 
d="M647 1801l-43 124q70 110 162 102q43 -3 85 -34q55 -43 96 -46q53 -6 92 80l44 -125q-74 -110 -162 -102q-56 6 -94 42q-50 38 -81 41q-54 6 -99 -82zM515 1271l79 189l246 -93l-29 -96h396l-41 -296l-216 -1l343 -919l-265 -91l-352 940l-393 -932l-269 82l388 924
l-283 1l22 292h374zM437 154l284 286l153 -168l-283 -284zM774 1529h-169l-158 160l84 99l159 -122l159 122l83 -99z" />
    <glyph glyph-name="uni1EB5" unicode="&#x1eb5;" 
d="M647 1801l-43 124q70 110 162 102q43 -3 85 -34q55 -43 96 -46q53 -6 92 80l44 -125q-74 -110 -162 -102q-56 6 -94 42q-50 38 -81 41q-54 6 -99 -82zM515 1271l79 189l246 -93l-29 -96h396l-41 -296l-216 -1l343 -919l-265 -91l-352 940l-393 -932l-269 82l388 924
l-283 1l22 292h374zM437 154l284 286l153 -168l-283 -284zM774 1529h-169l-158 160l84 99l159 -122l159 122l83 -99z" />
    <glyph glyph-name="uni1EB6" unicode="&#x1eb6;" 
d="M524 -400v246h257v-246h-257zM515 1271l79 189l246 -93l-29 -96h396l-41 -296l-216 -1l343 -919l-265 -91l-352 940l-393 -932l-269 82l388 924l-283 1l22 292h374zM437 154l284 286l153 -168l-283 -284zM774 1529h-169l-158 160l84 99l159 -122l159 122l83 -99z" />
    <glyph glyph-name="uni1EB7" unicode="&#x1eb7;" 
d="M524 -400v246h257v-246h-257zM515 1271l79 189l246 -93l-29 -96h396l-41 -296l-216 -1l343 -919l-265 -91l-352 940l-393 -932l-269 82l388 924l-283 1l22 292h374zM437 154l284 286l153 -168l-283 -284zM774 1529h-169l-158 160l84 99l159 -122l159 122l83 -99z" />
    <glyph glyph-name="uni1EB8" unicode="&#x1eb8;" horiz-adv-x="1107" 
d="M536 -400v246h257v-246h-257zM58 1065l48 297h963l-80 -302l-486 -2v-149h533l-48 -272l-492 1q-15 -215 26 -286q42 -69 139 -70h366l-49 -283q-441 -11 -512 27q-69 37 -147 124q-77 87 -96 255v233l-165 -1l41 274l135 -1v156z" />
    <glyph glyph-name="uni1EB9" unicode="&#x1eb9;" horiz-adv-x="1163" 
d="M461 -400v246h257v-246h-257zM59 1061v291h989v-285l-571 -1v-159l452 -1l-32 -275h-420v-353l588 68l84 -302l-1042 -131l-32 302l118 20v394h-124l28 257l98 1l-1 116l161 59z" />
    <glyph glyph-name="uni1EBA" unicode="&#x1eba;" horiz-adv-x="1107" 
d="M505 1681l44 121q176 -5 239 -96q64 -90 -111 -238l-104 54q184 142 -68 159zM58 1065l48 297h963l-80 -302l-486 -2v-149h533l-48 -272l-492 1q-15 -215 26 -286q42 -69 139 -70h366l-49 -283q-441 -11 -512 27q-69 37 -147 124q-77 87 -96 255v233l-165 -1l41 274
l135 -1v156z" />
    <glyph glyph-name="uni1EBB" unicode="&#x1ebb;" horiz-adv-x="1163" 
d="M496 1681l44 121q176 -5 239 -96q64 -90 -111 -238l-104 54q184 142 -68 159zM59 1061v291h989v-285l-571 -1v-159l452 -1l-32 -275h-420v-353l588 68l84 -302l-1042 -131l-32 302l118 20v394h-124l28 257l98 1l-1 116l161 59z" />
    <glyph glyph-name="uni1EBC" unicode="&#x1ebc;" horiz-adv-x="1107" 
d="M416 1473l-45 132q74 116 172 108q47 -5 89 -36q59 -46 102 -49q57 -6 98 85l46 -133q-79 -116 -171 -108q-59 6 -100 45q-54 40 -86 43q-58 6 -105 -87zM58 1065l48 297h963l-80 -302l-486 -2v-149h533l-48 -272l-492 1q-15 -215 26 -286q42 -69 139 -70h366l-49 -283
q-441 -11 -512 27q-69 37 -147 124q-77 87 -96 255v233l-165 -1l41 274l135 -1v156z" />
    <glyph glyph-name="uni1EBD" unicode="&#x1ebd;" horiz-adv-x="1163" 
d="M395 1473l-45 132q74 116 172 108q47 -5 89 -36q59 -46 102 -49q57 -6 98 85l46 -133q-79 -116 -171 -108q-59 6 -100 45q-54 40 -86 43q-58 6 -105 -87zM59 1061v291h989v-285l-571 -1v-159l452 -1l-32 -275h-420v-353l588 68l84 -302l-1042 -131l-32 302l118 20v394
h-124l28 257l98 1l-1 116l161 59z" />
    <glyph glyph-name="uni1EBE" unicode="&#x1ebe;" horiz-adv-x="1107" 
d="M784 1729l178 194l147 -109l-242 -184zM58 1065l48 297h963l-80 -302l-486 -2v-149h533l-48 -272l-492 1q-15 -215 26 -286q42 -69 139 -70h366l-49 -283q-441 -11 -512 27q-69 37 -147 124q-77 87 -96 255v233l-165 -1l41 274l135 -1v156zM628 1790l235 -244l-83 -99
l-153 123l-153 -123l-84 99l236 244h1h1z" />
    <glyph glyph-name="uni1EBF" unicode="&#x1ebf;" horiz-adv-x="1163" 
d="M755 1729l178 194l147 -109l-242 -184zM599 1790l235 -244l-83 -99l-153 123l-153 -123l-84 99l236 244h1h1zM59 1061v291h989v-285l-571 -1v-159l452 -1l-32 -275h-420v-353l588 68l84 -302l-1042 -131l-32 302l118 20v394h-124l28 257l98 1l-1 116l161 59z" />
    <glyph glyph-name="uni1EC0" unicode="&#x1ec0;" horiz-adv-x="1107" 
d="M823 1923l178 -194l-83 -99l-242 184zM106 1362l-48 -297l176 1v-156l-135 1l-41 -274l165 1v-233q19 -168 96 -255q78 -87 147 -124q71 -38 512 -27l49 283h-366q-97 1 -139 70q-41 71 -26 286l492 -1l48 272h-533v149l486 2l80 302h-963zM863 1546l-235 244h-1h-1
l-236 -244l84 -99l153 123l153 -123z" />
    <glyph glyph-name="uni1EC1" unicode="&#x1ec1;" horiz-adv-x="1163" 
d="M794 1923l178 -194l-83 -99l-242 184zM834 1546l-235 244h-1h-1l-236 -244l84 -99l153 123l153 -123zM59 1352v-291l296 1l-161 -59l1 -116l-98 -1l-28 -257h124v-394l-118 -20l32 -302l1042 131l-84 302l-588 -68v353h420l32 275l-452 1v159l571 1v285h-989z" />
    <glyph glyph-name="uni1EC2" unicode="&#x1ec2;" horiz-adv-x="1107" 
d="M731 1850l44 121q176 -5 239 -96q64 -90 -111 -238l-104 54q184 142 -68 159zM58 1065l48 297h963l-80 -302l-486 -2v-149h533l-48 -272l-492 1q-15 -215 26 -286q42 -69 139 -70h366l-49 -283q-441 -11 -512 27q-69 37 -147 124q-77 87 -96 255v233l-165 -1l41 274
l135 -1v156zM628 1790l235 -244l-83 -99l-153 123l-153 -123l-84 99l236 244h1h1z" />
    <glyph glyph-name="uni1EC3" unicode="&#x1ec3;" horiz-adv-x="1163" 
d="M702 1850l44 121q176 -5 239 -96q64 -90 -111 -238l-104 54q184 142 -68 159zM599 1790l235 -244l-83 -99l-153 123l-153 -123l-84 99l236 244h1h1zM59 1061v291h989v-285l-571 -1v-159l452 -1l-32 -275h-420v-353l588 68l84 -302l-1042 -131l-32 302l118 20v394h-124
l28 257l98 1l-1 116l161 59z" />
    <glyph glyph-name="uni1EC4" unicode="&#x1ec4;" horiz-adv-x="1107" 
d="M463 1793l-45 132q74 116 172 108q47 -5 89 -36q59 -46 102 -49q57 -6 98 85l46 -133q-79 -116 -171 -108q-59 6 -100 45q-54 40 -86 43q-58 6 -105 -87zM58 1065l48 297h963l-80 -302l-486 -2v-149h533l-48 -272l-492 1q-15 -215 26 -286q42 -69 139 -70h366l-49 -283
q-441 -11 -512 27q-69 37 -147 124q-77 87 -96 255v233l-165 -1l41 274l135 -1v156zM628 1790l235 -244l-83 -99l-153 123l-153 -123l-84 99l236 244h1h1z" />
    <glyph glyph-name="uni1EC5" unicode="&#x1ec5;" horiz-adv-x="1163" 
d="M434 1793l-45 132q74 116 172 108q47 -5 89 -36q59 -46 102 -49q57 -6 98 85l46 -133q-79 -116 -171 -108q-59 6 -100 45q-54 40 -86 43q-58 6 -105 -87zM599 1790l235 -244l-83 -99l-153 123l-153 -123l-84 99l236 244h1h1zM59 1061v291h989v-285l-571 -1v-159l452 -1
l-32 -275h-420v-353l588 68l84 -302l-1042 -131l-32 302l118 20v394h-124l28 257l98 1l-1 116l161 59z" />
    <glyph glyph-name="uni1EC6" unicode="&#x1ec6;" horiz-adv-x="1107" 
d="M536 -400v246h257v-246h-257zM58 1065l48 297h963l-80 -302l-486 -2v-149h533l-48 -272l-492 1q-15 -215 26 -286q42 -69 139 -70h366l-49 -283q-441 -11 -512 27q-69 37 -147 124q-77 87 -96 255v233l-165 -1l41 274l135 -1v156zM628 1790l235 -244l-83 -99l-153 123
l-153 -123l-84 99l236 244h1h1z" />
    <glyph glyph-name="uni1EC7" unicode="&#x1ec7;" horiz-adv-x="1163" 
d="M461 -400v246h257v-246h-257zM599 1790l235 -244l-83 -99l-153 123l-153 -123l-84 99l236 244h1h1zM59 1061v291h989v-285l-571 -1v-159l452 -1l-32 -275h-420v-353l588 68l84 -302l-1042 -131l-32 302l118 20v394h-124l28 257l98 1l-1 116l161 59z" />
    <glyph glyph-name="uni1EC8" unicode="&#x1ec8;" horiz-adv-x="698" 
d="M241 1681l44 121q176 -5 239 -96q64 -90 -111 -238l-104 54q184 142 -68 159zM56 1072l29 288h545l-40 -288h-88v-795h112l-16 -279h-545l27 281l117 -1l2 723l126 71h-269z" />
    <glyph glyph-name="uni1EC9" unicode="&#x1ec9;" horiz-adv-x="457" 
d="M130 1681l44 121q176 -5 239 -96q64 -90 -111 -238l-104 54q184 142 -68 159zM82 1321l303 46l-1 -1366h-301z" />
    <glyph glyph-name="uni1ECA" unicode="&#x1eca;" horiz-adv-x="698" 
d="M221 -400v246h257v-246h-257zM56 1072l29 288h545l-40 -288h-88v-795h112l-16 -279h-545l27 281l117 -1l2 723l126 71h-269z" />
    <glyph glyph-name="uni1ECB" unicode="&#x1ecb;" horiz-adv-x="457" 
d="M106 -400v246h257v-246h-257zM82 1321l303 46l-1 -1366h-301z" />
    <glyph glyph-name="uni1ECC" unicode="&#x1ecc;" horiz-adv-x="1247" 
d="M494 -400v246h257v-246h-257zM48 1302l294 61v-131l78 131h660q122 -35 115 -344v-901q-24 -111 -187 -115h-763q-170 -8 -197 148v1151zM900 1068h-558v-770h558v770z" />
    <glyph glyph-name="uni1ECD" unicode="&#x1ecd;" horiz-adv-x="1247" 
d="M494 -400v246h257v-246h-257zM48 1302l294 61v-131l78 131h660q122 -35 115 -344v-901q-24 -111 -187 -115h-763q-170 -8 -197 148v1151zM900 1068h-558v-770h558v770z" />
    <glyph glyph-name="uni1ECE" unicode="&#x1ece;" horiz-adv-x="1247" 
d="M514 1691l44 121q176 -5 239 -96q64 -90 -111 -238l-104 54q184 142 -68 159zM48 1302l294 61v-131l78 131h660q122 -35 115 -344v-901q-24 -111 -187 -115h-763q-170 -8 -197 148v1151zM900 1068h-558v-770h558v770z" />
    <glyph glyph-name="uni1ECF" unicode="&#x1ecf;" horiz-adv-x="1247" 
d="M514 1691l44 121q176 -5 239 -96q64 -90 -111 -238l-104 54q184 142 -68 159zM48 1302l294 61v-131l78 131h660q122 -35 115 -344v-901q-24 -111 -187 -115h-763q-170 -8 -197 148v1151zM900 1068h-558v-770h558v770z" />
    <glyph glyph-name="uni1ED0" unicode="&#x1ed0;" horiz-adv-x="1247" 
d="M791 1739l178 194l147 -109l-242 -184zM48 1302l294 61v-131l78 131h660q122 -35 115 -344v-901q-24 -111 -187 -115h-763q-170 -8 -197 148v1151zM900 1068h-558v-770h558v770zM635 1800l235 -244l-83 -99l-153 123l-153 -123l-84 99l236 244h1h1z" />
    <glyph glyph-name="uni1ED1" unicode="&#x1ed1;" horiz-adv-x="1247" 
d="M791 1739l178 194l147 -109l-242 -184zM635 1800l235 -244l-83 -99l-153 123l-153 -123l-84 99l236 244h1h1zM48 1302l294 61v-131l78 131h660q122 -35 115 -344v-901q-24 -111 -187 -115h-763q-170 -8 -197 148v1151zM900 1068h-558v-770h558v770z" />
    <glyph glyph-name="uni1ED2" unicode="&#x1ed2;" horiz-adv-x="1247" 
d="M830 1933l178 -194l-83 -99l-242 184zM342 1363l-294 -61v-1151q27 -156 197 -148h763q163 4 187 115v901q7 309 -115 344h-660l-78 -131v131zM342 1068h558v-770h-558v770zM870 1556l-235 244h-1h-1l-236 -244l84 -99l153 123l153 -123z" />
    <glyph glyph-name="uni1ED3" unicode="&#x1ed3;" horiz-adv-x="1247" 
d="M830 1933l178 -194l-83 -99l-242 184zM870 1556l-235 244h-1h-1l-236 -244l84 -99l153 123l153 -123zM342 1363l-294 -61v-1151q27 -156 197 -148h763q163 4 187 115v901q7 309 -115 344h-660l-78 -131v131zM342 1068h558v-770h-558v770z" />
    <glyph glyph-name="uni1ED4" unicode="&#x1ed4;" horiz-adv-x="1247" 
d="M738 1860l44 121q176 -5 239 -96q64 -90 -111 -238l-104 54q184 142 -68 159zM48 1302l294 61v-131l78 131h660q122 -35 115 -344v-901q-24 -111 -187 -115h-763q-170 -8 -197 148v1151zM900 1068h-558v-770h558v770zM635 1800l235 -244l-83 -99l-153 123l-153 -123
l-84 99l236 244h1h1z" />
    <glyph glyph-name="uni1ED5" unicode="&#x1ed5;" horiz-adv-x="1247" 
d="M738 1860l44 121q176 -5 239 -96q64 -90 -111 -238l-104 54q184 142 -68 159zM635 1800l235 -244l-83 -99l-153 123l-153 -123l-84 99l236 244h1h1zM48 1302l294 61v-131l78 131h660q122 -35 115 -344v-901q-24 -111 -187 -115h-763q-170 -8 -197 148v1151zM900 1068
h-558v-770h558v770z" />
    <glyph glyph-name="uni1ED6" unicode="&#x1ed6;" horiz-adv-x="1247" 
d="M470 1803l-45 132q74 116 172 108q47 -5 89 -36q59 -46 102 -49q57 -6 98 85l46 -133q-79 -116 -171 -108q-59 6 -100 45q-54 40 -86 43q-58 6 -105 -87zM48 1302l294 61v-131l78 131h660q122 -35 115 -344v-901q-24 -111 -187 -115h-763q-170 -8 -197 148v1151z
M900 1068h-558v-770h558v770zM635 1800l235 -244l-83 -99l-153 123l-153 -123l-84 99l236 244h1h1z" />
    <glyph glyph-name="uni1ED7" unicode="&#x1ed7;" horiz-adv-x="1247" 
d="M470 1803l-45 132q74 116 172 108q47 -5 89 -36q59 -46 102 -49q57 -6 98 85l46 -133q-79 -116 -171 -108q-59 6 -100 45q-54 40 -86 43q-58 6 -105 -87zM635 1800l235 -244l-83 -99l-153 123l-153 -123l-84 99l236 244h1h1zM48 1302l294 61v-131l78 131h660
q122 -35 115 -344v-901q-24 -111 -187 -115h-763q-170 -8 -197 148v1151zM900 1068h-558v-770h558v770z" />
    <glyph glyph-name="uni1ED8" unicode="&#x1ed8;" horiz-adv-x="1247" 
d="M494 -400v246h257v-246h-257zM48 1302l294 61v-131l78 131h660q122 -35 115 -344v-901q-24 -111 -187 -115h-763q-170 -8 -197 148v1151zM900 1068h-558v-770h558v770zM635 1800l235 -244l-83 -99l-153 123l-153 -123l-84 99l236 244h1h1z" />
    <glyph glyph-name="uni1ED9" unicode="&#x1ed9;" horiz-adv-x="1247" 
d="M494 -400v246h257v-246h-257zM635 1800l235 -244l-83 -99l-153 123l-153 -123l-84 99l236 244h1h1zM48 1302l294 61v-131l78 131h660q122 -35 115 -344v-901q-24 -111 -187 -115h-763q-170 -8 -197 148v1151zM900 1068h-558v-770h558v770z" />
    <glyph glyph-name="uni1EDA" unicode="&#x1eda;" horiz-adv-x="1260" 
d="M565 1556l236 244l139 -109l-292 -234zM48 1302l294 61v-131l78 131h632l121 195l240 -61l-167 -271l-71 16q23 -86 20 -223v-901q-24 -111 -187 -115h-763q-170 -8 -197 148v1151zM900 1068h-558v-770h558v770z" />
    <glyph glyph-name="uni1EDB" unicode="&#x1edb;" horiz-adv-x="1260" 
d="M565 1556l236 244l139 -109l-292 -234zM48 1302l294 61v-131l78 131h632l121 195l240 -61l-167 -271l-71 16q23 -86 20 -223v-901q-24 -111 -187 -115h-763q-170 -8 -197 148v1151zM900 1068h-558v-770h558v770z" />
    <glyph glyph-name="uni1EDC" unicode="&#x1edc;" horiz-adv-x="1260" 
d="M561 1800l236 -244l-84 -99l-292 234zM48 1302l294 61v-131l78 131h632l121 195l240 -61l-167 -271l-71 16q23 -86 20 -223v-901q-24 -111 -187 -115h-763q-170 -8 -197 148v1151zM900 1068h-558v-770h558v770z" />
    <glyph glyph-name="uni1EDD" unicode="&#x1edd;" horiz-adv-x="1260" 
d="M561 1800l236 -244l-84 -99l-292 234zM48 1302l294 61v-131l78 131h632l121 195l240 -61l-167 -271l-71 16q23 -86 20 -223v-901q-24 -111 -187 -115h-763q-170 -8 -197 148v1151zM900 1068h-558v-770h558v770z" />
    <glyph glyph-name="uni1EDE" unicode="&#x1ede;" horiz-adv-x="1260" 
d="M514 1691l44 121q176 -5 239 -96q64 -90 -111 -238l-104 54q184 142 -68 159zM48 1302l294 61v-131l78 131h632l121 195l240 -61l-167 -271l-71 16q23 -86 20 -223v-901q-24 -111 -187 -115h-763q-170 -8 -197 148v1151zM900 1068h-558v-770h558v770z" />
    <glyph glyph-name="uni1EDF" unicode="&#x1edf;" horiz-adv-x="1260" 
d="M514 1691l44 121q176 -5 239 -96q64 -90 -111 -238l-104 54q184 142 -68 159zM48 1302l294 61v-131l78 131h632l121 195l240 -61l-167 -271l-71 16q23 -86 20 -223v-901q-24 -111 -187 -115h-763q-170 -8 -197 148v1151zM900 1068h-558v-770h558v770z" />
    <glyph glyph-name="uni1EE0" unicode="&#x1ee0;" horiz-adv-x="1260" 
d="M417 1483l-45 132q74 116 172 108q47 -5 89 -36q59 -46 102 -49q57 -6 98 85l46 -133q-79 -116 -171 -108q-59 6 -100 45q-54 40 -86 43q-58 6 -105 -87zM48 1302l294 61v-131l78 131h632l121 195l240 -61l-167 -271l-71 16q23 -86 20 -223v-901q-24 -111 -187 -115h-763
q-170 -8 -197 148v1151zM900 1068h-558v-770h558v770z" />
    <glyph glyph-name="uni1EE1" unicode="&#x1ee1;" horiz-adv-x="1260" 
d="M417 1483l-45 132q74 116 172 108q47 -5 89 -36q59 -46 102 -49q57 -6 98 85l46 -133q-79 -116 -171 -108q-59 6 -100 45q-54 40 -86 43q-58 6 -105 -87zM48 1302l294 61v-131l78 131h632l121 195l240 -61l-167 -271l-71 16q23 -86 20 -223v-901q-24 -111 -187 -115h-763
q-170 -8 -197 148v1151zM900 1068h-558v-770h558v770z" />
    <glyph glyph-name="uni1EE2" unicode="&#x1ee2;" horiz-adv-x="1260" 
d="M494 -400v246h257v-246h-257zM48 1302l294 61v-131l78 131h632l121 195l240 -61l-167 -271l-71 16q23 -86 20 -223v-901q-24 -111 -187 -115h-763q-170 -8 -197 148v1151zM900 1068h-558v-770h558v770z" />
    <glyph glyph-name="uni1EE3" unicode="&#x1ee3;" horiz-adv-x="1260" 
d="M494 -400v246h257v-246h-257zM48 1302l294 61v-131l78 131h632l121 195l240 -61l-167 -271l-71 16q23 -86 20 -223v-901q-24 -111 -187 -115h-763q-170 -8 -197 148v1151zM900 1068h-558v-770h558v770z" />
    <glyph glyph-name="uni1EE4" unicode="&#x1ee4;" horiz-adv-x="1243" 
d="M534 -400v246h257v-246h-257zM66 1323l307 53q-57 -525 -16 -705q43 -181 133 -283q92 -104 412 -50l-1 1024l290 -17v-1310l-290 -29v165l-52 -181l-63 -14q-282 -5 -425 79t-236 341q-93 255 -76 742z" />
    <glyph glyph-name="uni1EE5" unicode="&#x1ee5;" horiz-adv-x="1243" 
d="M534 -400v246h257v-246h-257zM66 1323l307 53q-57 -525 -16 -705q43 -181 133 -283q92 -104 412 -50l-1 1024l290 -17v-1310l-290 -29v165l-52 -181l-63 -14q-282 -5 -425 79t-236 341q-93 255 -76 742z" />
    <glyph glyph-name="uni1EE6" unicode="&#x1ee6;" horiz-adv-x="1243" 
d="M519 1691l44 121q176 -5 239 -96q64 -90 -111 -238l-104 54q184 142 -68 159zM66 1323l307 53q-57 -525 -16 -705q43 -181 133 -283q92 -104 412 -50l-1 1024l290 -17v-1310l-290 -29v165l-52 -181l-63 -14q-282 -5 -425 79t-236 341q-93 255 -76 742z" />
    <glyph glyph-name="uni1EE7" unicode="&#x1ee7;" horiz-adv-x="1243" 
d="M519 1691l44 121q176 -5 239 -96q64 -90 -111 -238l-104 54q184 142 -68 159zM66 1323l307 53q-57 -525 -16 -705q43 -181 133 -283q92 -104 412 -50l-1 1024l290 -17v-1310l-290 -29v165l-52 -181l-63 -14q-282 -5 -425 79t-236 341q-93 255 -76 742z" />
    <glyph glyph-name="uni1EE8" unicode="&#x1ee8;" horiz-adv-x="1256" 
d="M565 1556l236 244l139 -109l-292 -234zM66 1323l307 53q-57 -525 -16 -705q43 -181 133 -283q92 -104 412 -50l-1 1024l156 -9l127 205l240 -61l-167 -271l-66 15v-1206l-290 -29v165l-52 -181l-63 -14q-282 -5 -425 79t-236 341q-93 255 -76 742z" />
    <glyph glyph-name="uni1EE9" unicode="&#x1ee9;" horiz-adv-x="1256" 
d="M565 1556l236 244l139 -109l-292 -234zM66 1323l307 53q-57 -525 -16 -705q43 -181 133 -283q92 -104 412 -50l-1 1024l156 -9l127 205l240 -61l-167 -271l-66 15v-1206l-290 -29v165l-52 -181l-63 -14q-282 -5 -425 79t-236 341q-93 255 -76 742z" />
    <glyph glyph-name="uni1EEA" unicode="&#x1eea;" horiz-adv-x="1256" 
d="M560 1800l236 -244l-84 -99l-292 234zM66 1323l307 53q-57 -525 -16 -705q43 -181 133 -283q92 -104 412 -50l-1 1024l156 -9l127 205l240 -61l-167 -271l-66 15v-1206l-290 -29v165l-52 -181l-63 -14q-282 -5 -425 79t-236 341q-93 255 -76 742z" />
    <glyph glyph-name="uni1EEB" unicode="&#x1eeb;" horiz-adv-x="1256" 
d="M560 1800l236 -244l-84 -99l-292 234zM66 1323l307 53q-57 -525 -16 -705q43 -181 133 -283q92 -104 412 -50l-1 1024l156 -9l127 205l240 -61l-167 -271l-66 15v-1206l-290 -29v165l-52 -181l-63 -14q-282 -5 -425 79t-236 341q-93 255 -76 742z" />
    <glyph glyph-name="uni1EEC" unicode="&#x1eec;" horiz-adv-x="1256" 
d="M519 1691l44 121q176 -5 239 -96q64 -90 -111 -238l-104 54q184 142 -68 159zM66 1323l307 53q-57 -525 -16 -705q43 -181 133 -283q92 -104 412 -50l-1 1024l156 -9l127 205l240 -61l-167 -271l-66 15v-1206l-290 -29v165l-52 -181l-63 -14q-282 -5 -425 79t-236 341
q-93 255 -76 742z" />
    <glyph glyph-name="uni1EED" unicode="&#x1eed;" horiz-adv-x="1256" 
d="M519 1691l44 121q176 -5 239 -96q64 -90 -111 -238l-104 54q184 142 -68 159zM66 1323l307 53q-57 -525 -16 -705q43 -181 133 -283q92 -104 412 -50l-1 1024l156 -9l127 205l240 -61l-167 -271l-66 15v-1206l-290 -29v165l-52 -181l-63 -14q-282 -5 -425 79t-236 341
q-93 255 -76 742z" />
    <glyph glyph-name="uni1EEE" unicode="&#x1eee;" horiz-adv-x="1256" 
d="M446 1483l-45 132q74 116 172 108q47 -5 89 -36q59 -46 102 -49q57 -6 98 85l46 -133q-79 -116 -171 -108q-59 6 -100 45q-54 40 -86 43q-58 6 -105 -87zM66 1323l307 53q-57 -525 -16 -705q43 -181 133 -283q92 -104 412 -50l-1 1024l156 -9l127 205l240 -61l-167 -271
l-66 15v-1206l-290 -29v165l-52 -181l-63 -14q-282 -5 -425 79t-236 341q-93 255 -76 742z" />
    <glyph glyph-name="uni1EEF" unicode="&#x1eef;" horiz-adv-x="1256" 
d="M446 1483l-45 132q74 116 172 108q47 -5 89 -36q59 -46 102 -49q57 -6 98 85l46 -133q-79 -116 -171 -108q-59 6 -100 45q-54 40 -86 43q-58 6 -105 -87zM66 1323l307 53q-57 -525 -16 -705q43 -181 133 -283q92 -104 412 -50l-1 1024l156 -9l127 205l240 -61l-167 -271
l-66 15v-1206l-290 -29v165l-52 -181l-63 -14q-282 -5 -425 79t-236 341q-93 255 -76 742z" />
    <glyph glyph-name="uni1EF0" unicode="&#x1ef0;" horiz-adv-x="1256" 
d="M534 -400v246h257v-246h-257zM66 1323l307 53q-57 -525 -16 -705q43 -181 133 -283q92 -104 412 -50l-1 1024l156 -9l127 205l240 -61l-167 -271l-66 15v-1206l-290 -29v165l-52 -181l-63 -14q-282 -5 -425 79t-236 341q-93 255 -76 742z" />
    <glyph glyph-name="uni1EF1" unicode="&#x1ef1;" horiz-adv-x="1256" 
d="M534 -400v246h257v-246h-257zM66 1323l307 53q-57 -525 -16 -705q43 -181 133 -283q92 -104 412 -50l-1 1024l156 -9l127 205l240 -61l-167 -271l-66 15v-1206l-290 -29v165l-52 -181l-63 -14q-282 -5 -425 79t-236 341q-93 255 -76 742z" />
    <glyph glyph-name="uni1EF2" unicode="&#x1ef2;" horiz-adv-x="1083" 
d="M441 1800l236 -244l-84 -99l-292 234zM3 1173l217 184l380 -745q204 205 166 705l278 -11q-4 -530 -114 -741q-108 -209 -266.5 -377t-381.5 -310l-119 282l257 210z" />
    <glyph glyph-name="uni1EF3" unicode="&#x1ef3;" horiz-adv-x="1083" 
d="M441 1800l236 -244l-84 -99l-292 234zM3 1173l217 184l380 -745q204 205 166 705l278 -11q-4 -530 -114 -741q-108 -209 -266.5 -377t-381.5 -310l-119 282l257 210z" />
    <glyph glyph-name="uni1EF4" unicode="&#x1ef4;" horiz-adv-x="1083" 
d="M478 -400v246h257v-246h-257zM3 1173l217 184l380 -745q204 205 166 705l278 -11q-4 -530 -114 -741q-108 -209 -266.5 -377t-381.5 -310l-119 282l257 210z" />
    <glyph glyph-name="uni1EF5" unicode="&#x1ef5;" horiz-adv-x="1083" 
d="M478 -400v246h257v-246h-257zM3 1173l217 184l380 -745q204 205 166 705l278 -11q-4 -530 -114 -741q-108 -209 -266.5 -377t-381.5 -310l-119 282l257 210z" />
    <glyph glyph-name="uni1EF6" unicode="&#x1ef6;" horiz-adv-x="1083" 
d="M449 1691l44 121q176 -5 239 -96q64 -90 -111 -238l-104 54q184 142 -68 159zM3 1173l217 184l380 -745q204 205 166 705l278 -11q-4 -530 -114 -741q-108 -209 -266.5 -377t-381.5 -310l-119 282l257 210z" />
    <glyph glyph-name="uni1EF7" unicode="&#x1ef7;" horiz-adv-x="1083" 
d="M449 1691l44 121q176 -5 239 -96q64 -90 -111 -238l-104 54q184 142 -68 159zM3 1173l217 184l380 -745q204 205 166 705l278 -11q-4 -530 -114 -741q-108 -209 -266.5 -377t-381.5 -310l-119 282l257 210z" />
    <glyph glyph-name="uni1EF8" unicode="&#x1ef8;" horiz-adv-x="1083" 
d="M353 1483l-45 132q74 116 172 108q47 -5 89 -36q59 -46 102 -49q57 -6 98 85l46 -133q-79 -116 -171 -108q-59 6 -100 45q-54 40 -86 43q-58 6 -105 -87zM3 1173l217 184l380 -745q204 205 166 705l278 -11q-4 -530 -114 -741q-108 -209 -266.5 -377t-381.5 -310
l-119 282l257 210z" />
    <glyph glyph-name="uni1EF9" unicode="&#x1ef9;" horiz-adv-x="1083" 
d="M353 1483l-45 132q74 116 172 108q47 -5 89 -36q59 -46 102 -49q57 -6 98 85l46 -133q-79 -116 -171 -108q-59 6 -100 45q-54 40 -86 43q-58 6 -105 -87zM3 1173l217 184l380 -745q204 205 166 705l278 -11q-4 -530 -114 -741q-108 -209 -266.5 -377t-381.5 -310
l-119 282l257 210z" />
    <glyph glyph-name="endash" unicode="&#x2013;" horiz-adv-x="1139" 
 />
    <glyph glyph-name="emdash" unicode="&#x2014;" horiz-adv-x="2048" 
 />
    <glyph glyph-name="quoteleft" unicode="&#x2018;" horiz-adv-x="353" 
d="M69 992v407h211v-407h-211z" />
    <glyph glyph-name="quoteright" unicode="&#x2019;" horiz-adv-x="353" 
d="M69 992v407h211v-407h-211z" />
    <glyph glyph-name="quotesinglbase" unicode="&#x201a;" horiz-adv-x="455" 
 />
    <glyph glyph-name="quotedblleft" unicode="&#x201c;" horiz-adv-x="598" 
d="M69 992v407h211v-407h-211zM341 992v407h195v-407h-195z" />
    <glyph glyph-name="quotedblright" unicode="&#x201d;" horiz-adv-x="598" 
d="M69 992v407h211v-407h-211zM341 992v407h195v-407h-195z" />
    <glyph glyph-name="quotedblbase" unicode="&#x201e;" horiz-adv-x="682" 
 />
    <glyph glyph-name="dagger" unicode="&#x2020;" horiz-adv-x="1139" 
 />
    <glyph glyph-name="daggerdbl" unicode="&#x2021;" horiz-adv-x="1139" 
 />
    <glyph glyph-name="bullet" unicode="&#x2022;" horiz-adv-x="717" 
 />
    <glyph glyph-name="ellipsis" unicode="&#x2026;" horiz-adv-x="2048" 
 />
    <glyph glyph-name="perthousand" unicode="&#x2030;" horiz-adv-x="2048" 
 />
    <glyph glyph-name="guilsinglleft" unicode="&#x2039;" horiz-adv-x="682" 
 />
    <glyph glyph-name="guilsinglright" unicode="&#x203a;" horiz-adv-x="682" 
 />
    <glyph glyph-name="fraction" unicode="&#x2044;" horiz-adv-x="342" 
 />
    <glyph glyph-name="fraction" unicode="&#x2215;" horiz-adv-x="342" 
 />
    <glyph glyph-name="Euro" unicode="&#x20ac;" horiz-adv-x="1158" 
d="M79 903h118q47 138 159 251q197 197 477 197q119 0 224 -35v-287q-97 64 -224 64q-173 0 -294 -121q-33 -33 -57 -69h571v-146h-629q-7 -35 -7 -79q0 -21 1 -31h635v-148h-597q29 -61 83 -115q122 -122 294 -122q124 0 224 65v-289q-104 -36 -224 -36q-279 0 -475 198
q-132 131 -176 299h-103v148h82q-1 9 -1 28q0 46 4 82h-85v146z" />
    <glyph glyph-name="trademark" unicode="&#x2122;" horiz-adv-x="2048" 
 />
    <glyph glyph-name="fi" unicode="&#xf001;" horiz-adv-x="1024" 
 />
    <glyph glyph-name="fi" unicode="&#xfb01;" horiz-adv-x="1024" 
 />
    <glyph glyph-name="fl" unicode="&#xf002;" horiz-adv-x="1024" 
 />
    <glyph glyph-name="fl" unicode="&#xfb02;" horiz-adv-x="1024" 
 />
    <glyph glyph-name="pi1" horiz-adv-x="1124" 
 />
    <glyph glyph-name="middot.001" horiz-adv-x="682" 
 />
  </font>
</defs>
</svg>
